/* XPM */
static char *_57ab0f37e0f42f2d6f86e9bb4ec125eTSUpzvsKrTtmtdE0[] = {
/* columns rows colors chars-per-pixel */
"48 48 12 1 ",
"  c #27AE60",
". c #27AF60",
"X c #29B764",
"o c #29B865",
"O c #29B965",
"+ c #27AD60",
"@ c #24A35A",
"# c #24A159",
"$ c #24A059",
"% c #24A259",
"& c #29B765",
"* c white",
/* pixels */
"                                                ",
"                                                ",
"         ...                                    ",
"        .XoX.                                   ",
"        .oOo.                                   ",
"        .XoX.                    +++            ",
"         ...                    +@#@+           ",
"                                +#$#+           ",
"+++                             +@#@+        +++",
"%%@+                             +++        +@%%",
"##%+                                        +%##",
"##%+                                ...     +%##",
"##%+                               .XoX.    +%##",
"##%+                               .oOo.    +%##",
"%%@+                               .XoX.    +@%%",
"+++                                 ...      +++",
"                                                ",
"      +++            +++                        ",
"     +@#@+          +@#@+                       ",
"     +#$#+          +#$#+                       ",
"     +@#@+          +@#@+     ......            ",
"      +++            +++     .Xo&&oX.           ",
"                             .oooooo.           ",
"                             .&oooo&.           ",
"                             .&oooo&.           ",
"                             .oooooo.           ",
"                             .Xo&&oX.           ",
"                              ......            ",
"                                                ",
"                           +++                  ",
"                          +@#@+                 ",
"                          +#$#+                 ",
"            ...           +@#@+                 ",
"           .XoX.           +++                  ",
"           .oOo.                                ",
"           .XoX.                       ...      ",
"            ...                       .XoX.     ",
"                                      .oOo.     ",
"      ...                             .XoX.     ",
"     .XoX.                             ...      ",
"     .oOo.                                      ",
"     .XoX.        +++                           ",
"      ...        +@#@+                          ",
"                 +#$#+                          ",
"                 +@#@+                          ",
"                  +++                           ",
"                                                ",
"                                                "
};
