/* XPM */
static char *b236e578f3a342768841fb67bcaa0785XCgCG0w2zjf7CQPI[] = {
/* columns rows colors chars-per-pixel */
"48 48 105 2 ",
"   c #27AE60",
".  c #27AD60",
"X  c #24A35A",
"o  c #24A259",
"O  c #24A159",
"+  c #24A059",
"@  c #27AF60",
"#  c #29B764",
"$  c #29B865",
"%  c #29B965",
"&  c #29B765",
"*  c #28AD5F",
"=  c #26AF61",
"-  c #28AD60",
";  c #24B262",
":  c #27B061",
">  c #2CAB5E",
",  c #23B263",
"<  c #23B363",
"1  c #3B9752",
"2  c #646032",
"3  c #65562D",
"4  c #646033",
"5  c #40924F",
"6  c #23B262",
"7  c #25B162",
"8  c #33A158",
"9  c #71522A",
"0  c #8D562C",
"q  c #A8703A",
"w  c #744E28",
"e  c #359F57",
"r  c #24B162",
"t  c #28AC5F",
"y  c #21B564",
"u  c #4D8045",
"i  c #804A25",
"p  c #BC8546",
"a  c #CB8B4A",
"s  c #7F4A26",
"d  c #21B665",
"f  c #4E7E44",
"g  c #824D27",
"h  c #C38747",
"j  c #C48647",
"k  c #C38748",
"l  c #824C27",
"z  c #29AD5F",
"x  c #21B363",
"c  c #4D7A42",
"v  c #814C27",
"b  c #B67F43",
"n  c #C58747",
"m  c #29AD60",
"M  c #1DA55B",
"N  c #4C743E",
"B  c #824E28",
"V  c #B57E43",
"C  c #BA8044",
"Z  c #4C733E",
"A  c #1DA45B",
"S  c #27AF61",
"D  c #26A259",
"F  c #1DA059",
"G  c #4A7840",
"H  c #7F4B26",
"J  c #B17D42",
"K  c #C58748",
"L  c #B17C42",
"P  c #7F4C27",
"I  c #4A713D",
"U  c #1A9552",
"Y  c #24A058",
"T  c #209D57",
"R  c #30914F",
"E  c #735029",
"W  c #89562C",
"Q  c #9B6937",
"!  c #754E28",
"~  c #308548",
"^  c #1D9250",
"/  c #249F58",
"(  c #25A35A",
")  c #239A55",
"_  c #1FA058",
"`  c #39884A",
"'  c #685A2F",
"]  c #6E4F29",
"[  c #3A7E44",
"{  c #1C9451",
"}  c #218F4F",
"|  c #27AC5F",
" . c #239E57",
".. c #1F9F58",
"X. c #249C56",
"o. c #2B9853",
"O. c #1F9E57",
"+. c #239955",
"@. c #27AD5F",
"#. c #239B56",
"$. c #219D56",
"%. c #229C56",
"&. c #26AC5F",
"*. c #26A95D",
"=. c white",
/* pixels */
"                                                                                                ",
"                                                                                                ",
"                                                                                          . . . ",
"                                                                                        . X o o ",
"                                                                                        . O + O ",
"                                          @ @ @                                         . X o o ",
"                                        @ # $ # @                                         . . . ",
"                                        @ $ % $ @                                               ",
"            . . .                       @ # $ # @                                   @ @ @       ",
"          . X O X .                       @ @ @                                   @ # $ # @     ",
"          . O + O .                                                               @ $ % $ @     ",
"          . X O X .     @ @ @ @ @ @                                               @ # $ # @     ",
"            . . .     @ # $ & & $ # @                                               @ @ @       ",
"                      @ $ $ $ $ $ $ @                                                           ",
"                      @ & $ $ $ $ & @           . . .                                           ",
"                      @ & $ $ $ $ & @         . X O X .                                         ",
"                      @ $ $ $ $ $ $ @         . O + O .                                         ",
"                      @ # $ & & $ # @         . X O X .                                         ",
"                        @ @ @ @ @ @             . . .                                           ",
"                                                                                                ",
"                  @ @ @                                                                         ",
"                @ # $ # @                                                                       ",
"                @ $ % $ @                                                                       ",
"                @ # $ # @                                                                       ",
"                  @ @ @                                                                         ",
"                            *   =   *                                                           ",
"                          - ; : > : , -         . . .                                           ",
"                        * < 1 2 3 4 5 6 *     . X O X .                                         ",
"                      - 7 8 9 0 q 0 w e r -   . O + O .                                         ",
"                      t y u i p a p s u y t   . X O X .                                         ",
"                      t d f g h j k l f d t     . . .                                           ",
"                      z x c v b n b v c x m                                                     ",
"                      t M N B V C V B Z A t                 @ @ @                               ",
"                    S D F G H J K L P I U D S             @ # $ # @                             ",
"                    @ Y T R E W Q W ! ~ ^ / S             @ $ % $ @                             ",
"      @ @ @         S ( ) _ ` ' ] ' [ { } X S             @ # $ # @     . . . . . .             ",
"    @ # $ # @         |  .) ..X.o.X.O.+. .|                 @ @ @     . X o o o o X .           ",
"    @ $ % $ @         @ @.X X.#.$.%.X.X @.@                           . o O O O O o .           ",
"    @ # $ # @             S &.*.*.*.&.S                               . o O O O O o .           ",
"      @ @ @                   S S S                                   . o O O O O o .           ",
"                                                                      . o O O O O o .           ",
"                                                                      . X o o o o X .           ",
"                                                                        . . . . . .             ",
"                                                                                                ",
"                                                      . . .                                     ",
"                                                    . X O X .                                   ",
"                                                    . o + o .                                   ",
"                                                    . o O o .                                   "
};
