/* XPM */
static char *genadiy[] = {
/* columns rows colors chars-per-pixel */
"48 48 5 1 ",
"  c black",
". c black",
"X c black",
"o c black",
"O c black",
/* pixels */
"                                                ",
"                                                ",
"                                                ",
"                                                ",
"                                                ",
"                                                ",
"                                                ",
"                                                ",
"                                                ",
"                  ............                  ",
"                  ............                  ",
"                  ............                  ",
"               ...XXXXXXXXXXXX...               ",
"               ...XXXXXXXXXXXX...               ",
"               ...XXXXXXXXXXXX...               ",
"            ...XXXOOOOOOOOOoooXXX...            ",
"            ...XXXOOOOOOOOOoooXXX...            ",
"            ...XXXOOOOOOOOOoooXXX...            ",
"         ...XXXOOOOOOXXXXXXoooOOOXXX...         ",
"         ...XXXOOOOOOXXXXXXoooOOOXXX...         ",
"         ...XXXOOOOOOXXXXXXoooOOOXXX...         ",
"         ...XXXOOOXXXOOOoooXXXoooXXX...         ",
"         ...XXXOOOXXXOOOoooXXXoooXXX...         ",
"         ...XXXOOOXXXOOOoooXXXoooXXX...         ",
"         ...XXXoooXXXooooooXXXoooXXX...         ",
"         ...XXXoooXXXooooooXXXoooXXX...         ",
"         ...XXXoooXXXooooooXXXoooXXX...         ",
"         ...XXXOOOoooXXXXXXooooooXXX...         ",
"         ...XXXOOOoooXXXXXXooooooXXX...         ",
"         ...XXXOOOoooXXXXXXooooooXXX...         ",
"            ...XXXooooooooooooXXX...            ",
"            ...XXXooooooooooooXXX...            ",
"            ...XXXooooooooooooXXX...            ",
"               ...XXXXXXXXXXXX...               ",
"               ...XXXXXXXXXXXX...               ",
"               ...XXXXXXXXXXXX...               ",
"                  ............                  ",
"                  ............                  ",
"                  ............                  ",
"                                                ",
"                                                ",
"                                                ",
"                                                ",
"                                                ",
"                                                ",
"                                                ",
"                                                ",
"                                                "
};
