/* XPM */
static char *_1cf239234ae4a99d9bfff7edcb17150B0nWAuTwMKRnrKJa[] = {
/* columns rows colors chars-per-pixel */
"48 48 104 2 ",
"   c None",
".  c #030202",
"X  c #141313",
"o  c #4F2913",
"O  c #512B14",
"+  c #4F321F",
"@  c #50321F",
"#  c #5B351B",
"$  c #5D391E",
"%  c #60381C",
"&  c #5D3A21",
"*  c #613E24",
"=  c #5A4432",
"-  c #5E4834",
";  c #634126",
":  c #684326",
">  c #644529",
",  c #69452A",
"<  c #66492D",
"1  c #6B4B2D",
"2  c #6B4E31",
"3  c #714F33",
"4  c #6C5033",
"5  c #64513E",
"6  c #725233",
"7  c #735738",
"8  c #765A3B",
"9  c #795C3C",
"0  c #4E4A49",
"q  c #5C544C",
"w  c #665240",
"e  c #695543",
"r  c #6B5846",
"t  c #715D46",
"y  c #7B5F41",
"u  c #715E49",
"i  c #7D6344",
"p  c #71604E",
"a  c #76644F",
"s  c #73614D",
"d  c #766653",
"f  c #7C6852",
"g  c #7D6953",
"h  c #786958",
"j  c #7D6F5D",
"k  c #7E705F",
"l  c #806646",
"z  c #806647",
"x  c #806747",
"c  c #816749",
"v  c #826849",
"b  c #826949",
"n  c #836A49",
"m  c #81684A",
"M  c #82684A",
"N  c #866948",
"B  c #846B4A",
"V  c #856C4C",
"C  c #866C4C",
"Z  c #886F50",
"A  c #887050",
"S  c #8B7251",
"D  c #8A7052",
"F  c #8A7152",
"G  c #8B7153",
"H  c #8A7252",
"J  c #8B7252",
"K  c #8B7253",
"L  c #8C7353",
"P  c #8D7453",
"I  c #8D7454",
"U  c #8C7554",
"Y  c #8D7654",
"T  c #8D7556",
"R  c #8D7557",
"E  c #8E7657",
"W  c #8F7757",
"Q  c #81705D",
"!  c #8F7758",
"~  c #8F7858",
"^  c #907755",
"/  c #907856",
"(  c #907858",
")  c #917A5B",
"_  c #947D5C",
"`  c #957D5D",
"'  c #857460",
"]  c #857663",
"[  c #817362",
"{  c #8C7B67",
"}  c #8D7C67",
"|  c #968063",
" . c #978164",
".. c #978165",
"X. c #9C8662",
"o. c #9D8765",
"O. c #9C8767",
"+. c #9D8768",
"@. c #9E8768",
"#. c #9E8769",
"$. c #878584",
"%. c #878584",
"&. c white",
"*. c white",
/* pixels */
"                                                                                                ",
"                                                                                                ",
"                                                                                                ",
"                                                                                                ",
"                          1 1 2 &.&.&.&.&.&.&.&.&.&.&.&.&.&.&.&.2 2 3                           ",
"                          R i i &.&.&.%.$.$.&.&.&.&.&.&.&.$.$.$.& R M 3                         ",
"                          R i i 0 0 $.%.$.$.$.$.$.$.$.$.$.$.$.$.+ H V 3                         ",
"                        1 V V 4 0 0 0 0 0 $.$.$.$.$.$.$.$.0 0 0 & i K K 3                       ",
"                        1 V V 4 0 0 0 0 0 0 %.%.$.$.%.%.0 0 0 0 + y R ! 2                       ",
"                      1 ~ H H 4 0 0 0 0 0 0 0 %.$.$.0 0 0 0 0 0 & y ! ! !                       ",
"                      , ..! 4 4 X X X X 0 0 0 0 0 0 0 0 0 0 X X @ y o.` `                       ",
"                      , ..R 2 4 X X X X X 0 0 0 0 0 0 0 X X X X @ l @.` `                       ",
"                      , ..R 4 4 X X X X X X 0 0 0 0 0 0 X X X X @ l @.` `                       ",
"                    , ..! 2 2 2 . . . X X X X X X X X X X . . . @ l y @.` ;                     ",
"                    ; ..R 4 2 2 . . . . X X X X X X X X . . . . @ i i @.` *                     ",
"                    > ` Z 2 2 2 . . . . . X X X X X X X . . . . @ l i O.^ *                     ",
"                    >  .A O 7 O . . . . . . . X X . . . . . . . @ 1 3 X.^ %                     ",
"                    ; $ $ @ - O . . . . . . . . . . . . . . . . @ : : * : %                     ",
"                    ; Q Q r O 2 . . . . . . . . . . . . . . . . @ 9 Q { } #                     ",
"                    ; i a O 2 < . . . . . . . . . . . . . . . . @ l % f m &                     ",
"                    * O O 2 1 2 . . . . . . . . . . . . . . . . @ l 7 % # #                     ",
"                    * 3 2 < 1 < . . . . . . . . . . . . . . . . @ t l N 9 #                     ",
"                    & m y < < O @ . . . . . . . . . . . . . . . @ % i P N #                     ",
"                    & m y < < o @ . . . . . . . . . . . . . . @ q % 9 S N O                     ",
"                    & m 9 < - o & . . . . . . . . . . . . . . @ s % 9 S l O                     ",
"                    & m 9 > > o + . . . . . . . . . . . . . . @ @ # 9 Z l O                     ",
"                    & i 9 > > > . . . . . . X X X . . . . . . . @ 9 8 A 9 #                     ",
"                    & i 8 > ; ; . . . . . X X X X X . . . . . . @ 7 7 A 9 O                     ",
"                    & i 7 ; ; ; . . . . X X X X X X X X . . . . @ 6 6 C 8 O                     ",
"                    $ i 7 ; ; ; . . . X X X X X X X X X . . . . @ 6 3 m 8 O                     ",
"                    # i 7 ; o & . . . X X X X X X X X X X X . . + $ $ m 8 o                     ",
"                    o # @ o = o X X X X X X X X X X X X X X X . + 1 h o O o                     ",
"                    O Q Q w O & + X X X X 0 X X 0 X X X X X X 0 + 1 r k Q o                     ",
"                    o t t = o O + X X X 0 0 0 0 0 X X X X X X o h o # t t O                     ",
"                    O O o & $ o o X X X X 0 0 0 0 0 X X X X X o 5 o ; o O o                     ",
"                    O 1 < # o w o X X 0 0 0 0 0 0 0 0 0 X X X o 5 p 1 6 2 o                     ",
"                    o i 7 # o = o X X 0 0 0 0 0 0 0 0 0 X X X o 5 r 1 x 7 o                     ",
"                    o i 7 o 5 = X X 0 0 $.$.$.$.$.0 0 0 0 0 X X o r O i 7 o                     ",
"                    o o o o = = X 0 $.$.$.$.$.$.$.$.$.$.0 0 0 X o r o o o o                     ",
"                    o d d w = o $.$.$.$.$.$.$.$.$.$.$.$.%.%.%.X X o k s s o                     ",
"                    o d r = $.$.$.$.$.$.$.$.$.$.$.$.$.$.$.$.$.$.$.o k w e o                     ",
"                    o s r = $.$.$.$.$.$.$.$.$.$.$.$.$.$.$.$.$.$.$.0 j e e o                     ",
"                    o p r = $.$.&.&.&.&.&.&.&.&.&.&.&.&.&.&.&.&.&.&.j e e o                     ",
"                    o o o o &.&.                                &.&.o o o o                     ",
"                                                                                                ",
"                                                                                                ",
"                                                                                                ",
"                                                                                                "
};
