/* XPM */
static char *_31d0ee4af0b4f0a8aff39623486f803uZxtPBvNofq507JZ[] = {
/* columns rows colors chars-per-pixel */
"48 48 123 2 ",
"   c None",
".  c #4D2712",
"X  c #4E2812",
"o  c #522B14",
"O  c #532F18",
"+  c #5A3117",
"@  c #573219",
"#  c #5A351D",
"$  c #5E391F",
"%  c #603A1F",
"&  c #5B3720",
"*  c #5E3A21",
"=  c #623D22",
"-  c #634126",
";  c #664529",
":  c #68462A",
">  c #67492C",
",  c #6A4A2D",
"<  c #6C4E31",
"1  c #654F3C",
"2  c #6E5234",
"3  c #66523F",
"4  c #6C563E",
"5  c #715537",
"6  c #735738",
"7  c #755A3A",
"8  c #795E3E",
"9  c #7A603F",
"0  c #675240",
"q  c #695642",
"w  c #6C5A46",
"e  c #6D5C48",
"r  c #715B45",
"t  c #7A5F40",
"y  c #715E48",
"u  c #7E6341",
"i  c #7C6142",
"p  c #7C6242",
"a  c #7D6242",
"s  c #7D6243",
"d  c #7D6343",
"f  c #7E6343",
"g  c #7D6241",
"h  c #7F6443",
"j  c #7E6344",
"k  c #7F6444",
"l  c #7F6544",
"z  c #7E6445",
"x  c #7B6040",
"c  c #72604A",
"v  c #73604A",
"b  c #75624B",
"n  c #76634C",
"m  c #75634D",
"M  c #776650",
"N  c #756551",
"B  c #786752",
"V  c #7A6952",
"C  c #7A6853",
"Z  c #7A6953",
"A  c #7B6954",
"S  c #7B6B55",
"D  c #7C6B55",
"F  c #7D6C55",
"G  c #7C6C56",
"H  c #7D6C56",
"J  c #7D6D56",
"K  c #7A6955",
"L  c #7F6E59",
"P  c #7F6F59",
"I  c #7F6F5A",
"U  c #7C6D5B",
"Y  c #7F705B",
"T  c #7F7262",
"R  c #806544",
"E  c #806545",
"W  c #816645",
"Q  c #826848",
"!  c #83694A",
"~  c #866B4A",
"^  c #866B4B",
"/  c #876B4B",
"(  c #876C4B",
")  c #846B4D",
"_  c #876E4D",
"`  c #866C4E",
"'  c #876E4F",
"]  c #876F4F",
"[  c #886C4C",
"{  c #886E4D",
"}  c #896F4F",
"|  c #8A714E",
" . c #8A704F",
".. c #8B714F",
"X. c #866E50",
"o. c #876E50",
"O. c #8D7453",
"+. c #8E7653",
"@. c #8A7254",
"#. c #8B7455",
"$. c #8C7455",
"%. c #81705B",
"&. c #81715B",
"*. c #81715D",
"=. c #907756",
"-. c #907857",
";. c #937B5C",
":. c #937C5C",
">. c #947C5C",
",. c #967D5F",
"<. c #947E5E",
"1. c #957E5E",
"2. c #957E5F",
"3. c #857561",
"4. c #867661",
"5. c #837461",
"6. c #897B67",
"7. c #8D7E6B",
"8. c #8E806C",
"9. c #998263",
"0. c #9A8364",
"q. c #928371",
"w. c #938472",
/* pixels */
"                                                                                                ",
"                                                                                                ",
"                                                                                                ",
"                                @ @ @ @ + @ @ @ @ @ @ @ @ @ @ +                                 ",
"                              + @ @ @ =  .| [ / + ( / / $ - - + @                               ",
"                            # + + -.-.% | | { ( + / / / @ 8 8 = @ @                             ",
"                          + = % $.+.-.% 0.0.>.>.$ >.>.>.# 8 8 8 7 @ @                           ",
"                        @ + { % 7  .h = u u 7 u % 8 u u - ; ; t #.- 2 *                         ",
"                      @ : [ ,.% 7 { E % u t 7 j : 8 u u : : Q 9 x - 6 5 @                       ",
"                    @ @ ; >.8 = { E R ; u u u j : 9 u u : Q 9 9 x ; ` 5 # +                     ",
"                    @ ; O.7 7 - E E R , t j t u : u u 9 , u 9 9 x , 9 9 ` @                     ",
"                    ; t O.7 8 , R R R , t t x E : 9 u u , t u u 9 < 9 8 X.@                     ",
"                    - o.7 7 7 : R E E , u t x E ; h h u , t t u x 2 8 9 8 @                     ",
"                    $ 7 7 7 7 , u j ; , t t t k , u u u , t = t t < 8 8 8 o                     ",
"                    # # # % = = = = q., t t 8 R , u u u < = w.= = = * # # o                     ",
"                    + H H %.%.4.6.4.X.= t t t R ; u u u = w.A 4.L L L Y V o                     ",
"                    + r r v b V A F X.O 8 t 8 j ; u u x O V V M y b y m w o                     ",
"                    @ o o @ o O O o F < t 8 t t : u u u , O B O o o o o o o                     ",
"                    @ - ; ; : $ , < o 2 t 8 t j : j u x , , o , , , , ; ; o                     ",
"                    o 6 6 6 7 - t t t < 8 t 8 j ; u u u , u 8 8 8 2 6 4 7 o                     ",
"                    O 6 6 6 6 , t 8 8 < 8 8 8 t ; h h 9 , j 8 t t < 6 6 5 O                     ",
"                    O 6 7 2 6 , 8 8 8 < 8 8 t t : 9 9 9 , u 8 8 t < 2 7 5 O                     ",
"                    o 6 7 7 7 , 7 7 7 < 7 8 8 t ; 9 9 9 2 x 8 8 t < 5 5 5 O                     ",
"                    o 6 2 6 6 , 7 7 7 < 7 7 + = = $ 9 9 2 x 7 8 t < 5 5 2 X                     ",
"                    o 6 6 6 6 : 7 7 7 2 7 7 8.8.7.6.% 9 5 u 7 8 t < < 2 2 O                     ",
"                    o 6 6 2 6 < 2 7 2 < 7 7 v m o v # 6 , u 7 7 7 ; 2 2 2 X                     ",
"                    X 5 2 6 6 < 6 6 6 , 7 7 e y o w o 6 < x 7 7 8 ; 2 2 2 X                     ",
"                    o 6 6 6 2 , 2 6 6 < 2 7 4 4 4 4 o 6 , u 7 7 7 ; 2 < 2 X                     ",
"                    o + @ # # * * * 8., 7 5 : : # ; 7 6 < * 8.* & & # # @ X                     ",
"                    X B C G G 5.5.4.V * 7 7 6 7 - 7 6 6 = 8.m *.G A G G B X                     ",
"                    X q q y y n n N V 6.* 2 7 6 - 6 6 7 7.m N m e r y e 4 X                     ",
"                    X X X o o X o X N - 6 6 2 4 - 6 6 6 - o e X X o X X X X                     ",
"                    X = = ; ; @ , : X - 5 2 5 6 - 5 5 2 - > X ; ; - * = = .                     ",
"                    X 2 2 < 2 # 6 4 : - 5 6 5 6 & 2 5 2 - 7 > 9 7 - < < < .                     ",
"                    X 2 2 2 2 * 2 2 4 * 2 5 2 2 O 5 2 2 - 4 9 4 7 * < < < .                     ",
"                    X O @ * * * & & & @ @ @ O X O O O @ @ & @ @ @ O O O X X                     ",
"                    . m m m N N N N N N K N U T . T U U Z Z N N N N N N N .                     ",
"                    X 3 0 0 0 0 0 w e e e w e N . e e e w e e q q q 3 1 1 .                     ",
"                    . 3 3 3 3 3 0 w q w w w e N X e e e e w w q q q 3 1 1 .                     ",
"                    . 3 3 0 q q 0 w w w w w e N X e e e w e q q q q 0 3 1 .                     ",
"                    X X X X X X X X X X X X X X X X X X X X X X X X X X X X                     ",
"                                                                                                ",
"                                                                                                ",
"                                                                                                ",
"                                                                                                ",
"                                                                                                ",
"                                                                                                ",
"                                                                                                "
};
