/* XPM */
static char *_d821a01798345519a86cc520fc7f6b82nLQ20lBTFNl2lIg[] = {
/* columns rows colors chars-per-pixel */
"48 48 5 1 ",
"  c None",
". c #6F3E43",
"X c #C88563",
"o c #ECB06E",
"O c #F3D8B4",
/* pixels */
" .............................................. ",
"................................................",
"..oOOOOOOOOOOOOOOOOOOOOOOOOOOOOOOOoooOoOOOOOOo..",
"..OOOOOOOOOOOOOOOOOOOOOOOOOOOOOOOOOoOOOOOOOOXX..",
"..OOOOOOOOOOOOOOOOOOOOOOOOOOOOOOOOOOOOOOOOOXXX..",
"..OOOooooooooooooooooooooooooooooooooooooooXXX..",
"..OOOooooooooooooooooooooooooooooooooooooooXXX..",
"..OOOooooooooooooooooooooooooooooooXoooooooXXX..",
"..OOOooooooooooooooooooooooooooooooXoooooooXXX..",
"..oOOooooooXoooooooooooooooooooooooOoooooooXXX..",
"..OOOooooooOooooooooooooooooooooooooooooXooXXX..",
"..oOOoooooooXoooooooooooooooooooooooooooOooXXX..",
"..ooOooXXooooooooooooooooooooooooooooooooooXXX..",
"..oOOooOOooooooooooooooooooooooooooooooooooXXX..",
"..OOOooooooooooooooooooooooooooooooooooooooXXX..",
"..OOOooooooooooooooooooooooooooooooooooooooXXX..",
"..OOOooooooooooooooooooooooooooooooooooooooXXX..",
"..OOOooooooooooooooooooooooooooooooooooooooXXX..",
"..OOOooooooooooooooooooooooooooooooooooooooXXX..",
"..OOOooooooooooooooooooooooooooooooooooooooXXX..",
"..OOOoooooooooooooooXXoooooooooooooooooooooXXX..",
"..OOOoooooooooooooooXXoooooooooooooooooooooXXX..",
"..OOOoooooooooooooooOOoooooooooooooooooooooXXX..",
"..OOOooooooooooooooooooooooooooooooooooooooXXX..",
"..OOOooooooooooooooooooooooooooooooooooooooXXX..",
"..OOOooooooooooooooooooooooooooooooooooooooXXX..",
"..OOOoooooooooooooXooooooooooooooooooooooooXXX..",
"..OOOoooooooooooooOoooooooooXooooooooooooooXXX..",
"..OOOoooooooooooooooooooXXooOooooooooooooooXXX..",
"..OOOoooooooooooooooooooXXoooooooooooooooooXXX..",
"..OOOoooooooooooooooooooOOoooooooooooooooooXXX..",
"..OOOooooooooooooooooooooooooooooooooooooooXXX..",
"..OOOooooooooooooooooooooooooooooooooooooooXXX..",
"..OOOooooooooooooooooooooooooooooooooooooooXXX..",
"..OOOooooooooooooooooooooooooooooooooooooooXXo..",
"..OOOooooooooooooooooooooooooooooooooooXXooXoo..",
"..OOOooooooooooooooooooooooooooooooooooOOooXXo..",
"..OOOooXoooooooooooooooooooooooooooooooooooXXX..",
"..OOOooOoooooooooooooooooooooooooooooooooooXXo..",
"..OOOooooXooXoooooooooooooooooooooooXooooooXXX..",
"..OOOooooOooXoooooooooooooooooooooooOooooooXXX..",
"..OOOoooooooOooooooooooooooooooooooooooooooXXX..",
"..OOOooooooooooooooooooooooooooooooooooooooXXX..",
"..OOXXXXXXXXXXXXXXXXXXXXXXXXXXXXXXXXXXXXXXXXXX..",
"..OXXXXXXXXXoXXXXXXXXXXXXXXXXXXXXXXXXXXXXXXXXX..",
"..oXXXXXXoXoooXXXXXXXXXXXXXXXXXXXXXXXXXXXXXXXo..",
"................................................",
" .............................................. "
};
