/* XPM */
static char *_634761628d8488a92617efdc1781a8adJtZRycXPinEaK9Y[] = {
/* columns rows colors chars-per-pixel */
"48 48 73 1 ",
"  c #843346",
". c #853546",
"X c #863446",
"o c #863647",
"O c #893746",
"+ c #883947",
"@ c #8B3846",
"# c #8C3946",
"$ c #923D45",
"% c #943E45",
"& c #8E4048",
"* c #964045",
"= c #984145",
"- c #9D4544",
"; c #9E4544",
": c #924549",
"> c #93474A",
", c #9E534C",
"< c #975952",
"1 c #A14744",
"2 c #A14844",
"3 c #A34D46",
"4 c #A7564A",
"5 c #A3584E",
"6 c #A4594E",
"7 c #A65B4F",
"8 c #A85A4B",
"9 c #A95E4F",
"0 c #A95F50",
"q c #9B645A",
"w c #AA6A59",
"e c #B36852",
"r c #B46A53",
"t c #B76C53",
"y c #B26F55",
"u c #B96E54",
"i c #B96F54",
"p c #B37056",
"a c #B67558",
"s c #BB7458",
"d c #B6785A",
"f c #B97A5B",
"g c #BE7C5E",
"h c #BD815E",
"j c #C08061",
"k c #C58F66",
"l c #C69167",
"z c #C99569",
"x c #C8936F",
"c c #CD9B6C",
"v c #CE9C6D",
"b c #CE9D6D",
"n c #CF9E6E",
"m c #C99671",
"M c #C79A70",
"N c #CC9C75",
"B c #CA9D78",
"V c #CFA17A",
"C c #D0A070",
"Z c #D1A373",
"A c #D2A575",
"S c #D5AB7C",
"D c #D6AD7D",
"F c #D5AD80",
"G c #D3B286",
"H c #D7B184",
"J c #D8B181",
"K c #D9B383",
"L c #D9B483",
"P c #DBB887",
"I c #DBB88A",
"U c #E1C392",
"Y c #E4C997",
/* pixels */
"nnnnnnnnnnnnnnnnnnnnnnnnnnnnnnnnnnnnnnnnnnnnvCIY",
"hknnnnnnnnnnnnnnnnnnnnnnnnnnnnnnnnnnnnnnnnnnAJDF",
"1acnnnnnnnnnnnnnnnnnnnnnnnnnnnnnnnnnnnnnNnnCDUBu",
"18plnnnnnnnnnnnnnnnnnnnnnnnnnnnnnnnnnnnnnCCJHmju",
"113flnnnnnnnnnnnnnnnnnnnnnnnnnnnnnnnnnnCnADKBsuu",
"1123ycnnnnnnnnnnnnnnnnnnnnnnnnnnnnnnCnCcCDUmsiuu",
"11118aknnnnnnnnnnnnnnnnnnnnnnnnnnnnnnncADDZjiiiu",
"111111dzcnnnnnnnnnnnnnnnnnnnnnnnnnnnnnASIViiiitu",
"1111114yznnnnnnnnnnnnnnnnnnnnnnnnnCnCnJIxguuuuuu",
"11111114fknnnnnnnnnnnnnnnnnnnnnnCccCAJFVguuuuuuu",
"111111111acnnnnnnnnnnnnnnnnnnnnnCncCSUNiuuuuuuuu",
"1111111118ylnnnnnnnnnnnnnnnnnnnnvvCKJmjiuuuuuuuu",
"11111111113flnnnnnnnnnnnnnnnnnnnCASGBsuuuuuuuuuu",
"111111111113ycnnnnnnnnnnnnnnnnnnCKUmsuuuuuuuuuuu",
"1111111111118aknnnnnnnnnnnnnnnnZKFBjuuuuuuuuuuuu",
"11111111111111fznnnnnnnnnnnnnnZSIVtuuuuuuuuuuuuu",
"111111111111114iznnnnnnnnnncncLIxguuuuuuuuuuuuuu",
"11111111111111;4dkncnnnnnncnALDVguuuuuuuuuuuuuuu",
"11111111111111111annnnnnnnnZDUNiuuuuuuuuuuuuuuuu",
"111111111111111118ylnnnnnnnKHmjiuuuuuuuuuuuuuuuu",
"1111111111111111113flnnnCADKVsiiuuuuuuuuuuuuuuuu",
"11111111111111111113ycnnvFUmsiiiuuuuuuuuuuuuuuuu",
"111111111111111111118akZKFNjitiiuuuuuuuuuuuuuuuu",
"1111111111111111111111fMGBitiiituuuuuuuuuuuuuuuu",
"111111111111111111111;,<qwiiiitiuuuuuuuuuuuuuuuu",
"11111111111111111111;%X X>7etitiuuuuuuuuuuuuuuuu",
"11111111111111111111%o  XXX0tuuuuuuuuuuuuuuuuuuu",
"1111111111111111111%@o  XXX:6tuuuuuuuuuuuuuuuuuu",
"11111111111111111;=@        :0euuuuuuuuuuuuuuuuu",
"11111111111111111%XX        X+0uuuuuuuuuuuuuuuuu",
"1111111111111111$+XX          :6tuuuuuuuuuuuuuuu",
"111111111111111%+            XX$0tuuuuuuuuuuuuup",
"11111111111111%+X              +$7piituuuuuuuuuu",
"111111111111;%#X                 $7tituuuuuuuuuu",
"111111111111$XXX                  +0tiiiuuuuuuuu",
"11111111111%+X X                  X:6tttuuuuuuuu",
"111111111-%OX                       :0tiuuuuuuuu",
"111111111%OXX                       Xo0puuuuuuuu",
"1111111;%#                            :5tuuuuuuu",
"111111-%OX                             $0euuuuuu",
"111111%OXX                              $5uuuuuu",
"1111-%#                                 o:7ruuuu",
"1111%O                                    +0tuuu",
"111%OX                                     :5uuu",
"1;=#                                        $0rp",
"1%X                                         o+0u",
"%OX                                           :,",
"X                                               "
};
