/* XPM */
static char *_40f838b1f3e457edbec702c6f280a33ttWMeT4ICGEx0Wyo[] = {
/* columns rows colors chars-per-pixel */
"48 48 76 1 ",
"  c #48475B",
". c #48485B",
"X c #49485C",
"o c #49495C",
"O c #4B4A5E",
"+ c #4D4D5F",
"@ c #4C4D61",
"# c #4E4F63",
"$ c #4F5063",
"% c #555668",
"& c #545669",
"* c #585A6B",
"= c #585A6D",
"- c #5A5D6D",
"; c #5B5E6E",
": c #595C70",
"> c #5F6376",
", c #5F6477",
"< c #606372",
"1 c #606477",
"2 c #616578",
"3 c #626679",
"4 c #62677A",
"5 c #63687B",
"6 c #676B7A",
"7 c #656A7C",
"8 c #676D7E",
"9 c #6A6F7C",
"0 c #6B6F7C",
"q c #686E7F",
"w c #6E7381",
"e c #707683",
"r c #717683",
"t c #717787",
"y c #737886",
"u c #727988",
"i c #747A89",
"p c #787F8D",
"a c #787F8E",
"s c #78808E",
"d c #7B8391",
"f c #7D8592",
"g c #7F8794",
"h c #808794",
"j c #818894",
"k c #828A96",
"l c #848C97",
"z c #838B98",
"x c #848B98",
"c c #848C98",
"v c #858C98",
"b c #868E9A",
"n c #88919C",
"m c #8B949F",
"M c #8C95A0",
"N c #8F98A3",
"B c #9098A3",
"V c #9099A4",
"C c #949DA7",
"Z c #969FA9",
"A c #97A1AB",
"S c #98A2AB",
"D c #99A3AD",
"F c #9CA6B0",
"G c #9FA9B2",
"H c #9FAAB2",
"J c #A0ABB4",
"K c #A1ACB5",
"L c #A2ACB6",
"P c #A4AFB8",
"I c #A6B2BA",
"U c #A7B2BA",
"Y c #A7B2BB",
"T c #ACB7BF",
"R c #AEBAC2",
"E c #AFBBC3",
/* pixels */
"xcccccccbcbcbcbcbcbcbcbcbcbcbcbccbcbcbcbcbcbbMFE",
"pfcccncncbcbcbcbcbcbcbcbcbcbcbcbbcbcbcbcbcbcmDFL",
"8ugxncccbcbcbcbcbcbcbcbcbcbcbcbccbcbcbcbcxbmZLZM",
"5qufxccncbcbcbcbcbcbcbcbcbcbcbcbbcbcbcbcccmDFZMn",
"53wugxccbxbczbbbbccbcbbccbcbbcbccbcbcbcbbMSDDMcc",
"35,7thcccbxbbbzzcbbcbcxbbcbxcbcbbcbcbcbbnSLSMccn",
"5353wuhcbcbbbzzzbxccccbxcbxcbxbccbbccbcmDDDMccnc",
",533,7izMNNNNNMMNVVVVVVVVVVVVVVVBBBBBBVCLDnlcccc",
"5,55,5wdFYRIRIPRYYYYYYYYYYYYYYYYYYYYYYYLZmbcbcbc",
"55,555,sHERREERREEEEEEEEEEEEEEEEEEEEEEEYVcbbcbcb",
"5555,5,sHRRREEEEEEEEEEEEEEEEEEEEEEEEEEEYBcbcbcbc",
",5,5555sPRRREEEEEEEEEEEEEEEEEEEEEEEEEEEYBbcbcbcb",
"555,555sHREEEEEEEEEEEEEEEEEEEEEEEEEEEEEYBbcbbcbc",
",555,53aIEEEEEEEEEEEEEEEEEEEEEEEEEEEEEEYBcbccbcb",
"5,5,5,5aGREEEEEEEEEEEEEEEEEEEEEEEEEEEEEYBbcbbcbc",
"5555555sPREEEEEEEEEEEEEEEEEEEEEEEEEEEEEYBcbccbcb",
"5,5,5,5sLREEEEEEEEEEEEEEEEEEEEEEEEEEEEEYBcbcbcbc",
"5555555sLEEEEEEEEEEEEEEEEEEEEEEEEEEEEEEYBbcbcbcb",
"5,555,,sLEEEEEEEEEEEEEEEEEEEEEEEEEEEEEEYBcbcbcbc",
"55,5555sLREEEEEEEEEEEEEEEEEEEEEEEEEEEEEYBbcbcbcb",
"555,515sPEEEEEEEEEEEEEEEEEEEEEEEEEEEEEEYBbbcbcbc",
",555555sLTEEEEEEEEEEEEEEEEEEEEEEEEEEEEEYBccbcbcb",
"5,5,513sLEEEEEEEEEEEEEEEEEEEEEEEEEEEEEEYBcbcbcbc",
"5555515sLEEEEEEEEEEEEEEEEEEEEEEEEEEEEEEYBbcbcbcb",
"5,55555sLEEEEEEEEEEEEEEEEEEEEEEEEEEEEEEYVcbcbcbc",
"55,5,5,sLREEEEEEEEEEEEEEEEEEEEEEEEEEEEEYVbcbcbcb",
"55555,5sLREEEEEEEEEEEEEEEEEEEEEEEEEEEEEYVbbcbcbc",
",5,5555sLREEEEEEEEEEEEEEEEEEEEEEEEEEEEEYVccbcbcb",
"5,5,555sLREEEEEEEEEEEEEEEEEEEEEEEEEEEEEYVcbcbcbc",
"5555,5,sLEEEEEEEEEEEEEEEEEEEEEEEEEEEEEEYBbcbcbcb",
"5,555,5sLEEEEEEEEEEEEEEEEEEEEEEEEEEEEEEYBcbcbccc",
"55,5555sLEEEEEEEEEEEEEEEEEEEEEEEEEEEEEEYBbcbcccx",
"555,55,sPREEEEEEEEEEEEEEEEEEEEEEEEEEEEEUVbcbcbcb",
",5555,5sGREEEEEEEEEEEEEEEEEEEEEEEEEEEEEUVlbcbcbc",
"5,5,555sIRREEEEEEEEEEEEEEEEEEEEEEEEEEERUVllbcbcb",
"55555,5sLRREEEEEEEEEEEEEEEEEEEEEEEEEEERUVlblbcbc",
"5,555,5sJREEEEEEEEEEEEEEEEEEEEEEEEEEEEEUVcbccbcb",
"55,555,sPREREEEEEEEEEEEEEEEEEEEEEEEEEEEUVbccbcbc",
"5555555sHRRRRRRRTETTRRTEETETETETEETTEEEUVcnccbcb",
",5,5,5,eAJHHGGGJGJJJJJJJJGJJGGJGGGJJHHHSlkccbcbc",
"535333=*1099990000000000000000qq00000006<rkllccb",
"35331=$...                              .;ejccbc",
"533>-@. ...                             .O%yklcb",
",53=@X  ....                            ..O-wxbc",
"5,:#.                                     oo-efl",
",:@o                                        +*eh",
"&@oo                          Xo            oO;6",
"oo                            Xo              O+"
};
