/* XPM */
static char *_6916d61deeb425af45417516e342778sjuD6l9s6Y5bRzel[] = {
/* columns rows colors chars-per-pixel */
"54 54 5 1 ",
"  c None",
". c #6F3E43",
"X c #C88563",
"o c #ECB06E",
"O c #F3D8B4",
/* pixels */
" .................................................... ",
"......................................................",
"..oOOOOOOOOOOOOOOOOOOOOOOOOOOOOOOOOOOOooooOoOOOOOOOo..",
"..OOOOOOOOOOOOOOOOOOOOOOOOOOOOOOOOOOOOOooOOOOOOOOOXX..",
"..OOOOOOOOOOOOOOOOOOOOOOOOOOOOOOOOOOOOOOOOOOOOOOOXXX..",
"..OOOOOOOOOOOOOOOOOOOOOOOOOOOOOOOOOOOOOOOOOOOOOOXXXX..",
"..OOOOooooooooooooooooooooooooooooooooooooooooooXXXX..",
"..OOOOooooooooooooooooooooooooooooooooooooooooooXXXX..",
"..OOOOoooooooooooooooooooooooooooooooooXXoooooooXXXX..",
"..OOOOoooooooooooooooooooooooooooooooooXXoooooooXXXX..",
"..oOOOooooooXooooooooooooooooooooooooooOOoooooooXXXX..",
"..OOOOooooooOooooooooooooooooooooooooooooooooXooXXXX..",
"..oOOOooooooooXooooooooooooooooooooooooooooooOooXXXX..",
"..ooOOooXXooooOoooooooooooooooooooooooooooooooooXXXX..",
"..ooOOooXXooooooooooooooooooooooooooooooooooooooXXXX..",
"..oOOOooOOooooooooooooooooooooooooooooooooooooooXXXX..",
"..OOOOooooooooooooooooooooooooooooooooooooooooooXXXX..",
"..OOOOooooooooooooooooooooooooooooooooooooooooooXXXX..",
"..OOOOooooooooooooooooooooooooooooooooooooooooooXXXX..",
"..OOOOooooooooooooooooooooooooooooooooooooooooooXXXX..",
"..OOOOoooooooooooooooooooooooooXooooooooooooooooXXXX..",
"..OOOOoooooooooooooooooooooooooOooooooooooooooooXXXX..",
"..OOOOooooooooooooooooooooooooooooooooooooooooooXXXX..",
"..OOOOoooooooooooooooooXXoooooooooooooooooooooooXXXX..",
"..OOOOoooooooooooooooooXXoooooooooooooooooooooooXXXX..",
"..OOOOoooooooooooooooooOOoooooooooooooooooooooooXXXX..",
"..OOOOooooooooooooooooooooooooooooooooooooooooooXXXX..",
"..OOOOooooooooooooooooooooooooooooooooooooooooooXXXX..",
"..OOOOooooooooooooooooooooooooooooooooooooooooooXXXX..",
"..OOOOooooooooooooooXoooooooooooooooooooooooooooXXXX..",
"..OOOOooooooooooooooOooooooooooXXoooooooooooooooXXXX..",
"..OOOOoooooooooooooooooooooooooXXoooooooooooooooXXXX..",
"..OOOOoooooooooooooooooooooXXooOOoooooooooooooooXXXX..",
"..OOOOoooooooooooooooooooooXXoooooooooooooooooooXXXX..",
"..OOOOoooooooooooooooooooooOOoooooooooooooooooooXXXX..",
"..OOOOooooooooooooooooooooooooooooooooooooooooooXXXX..",
"..OOOOooooooooooooooooooooooooooooooooooooooooooXXXX..",
"..OOOOooooooooooooooooooooooooooooooooooooooooooXXXX..",
"..OOOOooooooooooooooooooooooooooooooooooooooooooXXXo..",
"..OOOOooooooooooooooooooooooooooooooooooooooXXooXXoo..",
"..OOOOooooooooooooooooooooooooooooooooooooooXXooXXoo..",
"..OOOOooooooooooooooooooooooooooooooooooooooOOooXXXo..",
"..OOOOooXoooooooooooooooooooooooooooooooooooooooXXXX..",
"..OOOOooOoooooooooooooooooooooooooooooooooooooooXXXo..",
"..OOOOooooXooXXooooooooooooooooooooooooooXooooooXXXX..",
"..OOOOooooOooXXooooooooooooooooooooooooooOooooooXXXX..",
"..OOOOoooooooOOoooooooooooooooooooooooooooooooooXXXX..",
"..OOOOooooooooooooooooooooooooooooooooooooooooooXXXX..",
"..OOOXXXXXXXXXXXXXXXXXXXXXXXXXXXXXXXXXXXXXXXXXXXXXXX..",
"..OOXXXXXXXXXXXXXXXXXXXXXXXXXXXXXXXXXXXXXXXXXXXXXXXX..",
"..OXXXXXXXXXXooXXXXXXXXXXXXXXXXXXXXXXXXXXXXXXXXXXXXX..",
"..oXXXXXXXoXooooXXXXXXXXXXXXXXXXXXXXXXXXXXXXXXXXXXXo..",
"......................................................",
" .................................................... "
};
