/* XPM */
static char *_eb7cf6196654669b5e7379d3246a37aGlCPkzNiHHY4Zl7f[] = {
/* columns rows colors chars-per-pixel */
"48 48 5 1 ",
"  c None",
". c #25131A",
"X c #C09344",
"o c #FFD569",
"O c #FFF1CC",
/* pixels */
"                                                ",
"                                                ",
"                                                ",
"                                                ",
"                                                ",
"                                                ",
"                                                ",
"                                                ",
"                                                ",
"                     ......                     ",
"                     ......                     ",
"                     ......                     ",
"                  ...XXXXXX...                  ",
"                  ...XXXXXX...                  ",
"                  ...XXXXXX...                  ",
"               ...XXXOOOoooXXX...               ",
"               ...XXXOOOoooXXX...               ",
"               ...XXXOOOoooXXX...               ",
"            ...XXXOOOOOOoooOOOXXX...            ",
"            ...XXXOOOOOOoooOOOXXX...            ",
"            ...XXXOOOOOOoooOOOXXX...            ",
"            ...XXXOOOXXXXXXoooXXX...            ",
"            ...XXXOOOXXXXXXoooXXX...            ",
"            ...XXXOOOXXXXXXoooXXX...            ",
"            ...XXXoooXXXXXXoooXXX...            ",
"            ...XXXoooXXXXXXoooXXX...            ",
"            ...XXXoooXXXXXXoooXXX...            ",
"            ...XXXOOOoooooooooXXX...            ",
"            ...XXXOOOoooooooooXXX...            ",
"            ...XXXOOOoooooooooXXX...            ",
"               ...XXXooooooXXX...               ",
"               ...XXXooooooXXX...               ",
"               ...XXXooooooXXX...               ",
"                  ...XXXXXX...                  ",
"                  ...XXXXXX...                  ",
"                  ...XXXXXX...                  ",
"                     ......                     ",
"                     ......                     ",
"                     ......                     ",
"                                                ",
"                                                ",
"                                                ",
"                                                ",
"                                                ",
"                                                ",
"                                                ",
"                                                ",
"                                                "
};
