/* XPM */
static char *ad3a5cbb2f18474cea39bfb9d30592f650KboYMTtfr5WGB1[] = {
/* columns rows colors chars-per-pixel */
"48 48 4 1 ",
"  c None",
". c #25131A",
"X c #C09344",
"o c #FFD569",
/* pixels */
"                                                ",
"                                                ",
"                                                ",
"                                                ",
"                                                ",
"                                                ",
"                                                ",
"                                                ",
"                                                ",
"                     ......                     ",
"                     ......                     ",
"                     ......                     ",
"                  ...XXXXXX...                  ",
"                  ...XXXXXX...                  ",
"                  ...XXXXXX...                  ",
"                  ...XXXooo...                  ",
"                  ...XXXooo...                  ",
"                  ...XXXooo...                  ",
"                  ...XXXooo...                  ",
"                  ...XXXooo...                  ",
"                  ...XXXooo...                  ",
"                  ...XXXXXX...                  ",
"                  ...XXXXXX...                  ",
"                  ...XXXXXX...                  ",
"                  ...XXXXXX...                  ",
"                  ...XXXXXX...                  ",
"                  ...XXXXXX...                  ",
"                  ...XXXooo...                  ",
"                  ...XXXooo...                  ",
"                  ...XXXooo...                  ",
"                  ...XXXooo...                  ",
"                  ...XXXooo...                  ",
"                  ...XXXooo...                  ",
"                  ...XXXXXX...                  ",
"                  ...XXXXXX...                  ",
"                  ...XXXXXX...                  ",
"                     ......                     ",
"                     ......                     ",
"                     ......                     ",
"                                                ",
"                                                ",
"                                                ",
"                                                ",
"                                                ",
"                                                ",
"                                                ",
"                                                ",
"                                                "
};
