/* XPM */
static char *b37103da82e045e499ea345722903281UacdP80ykHPoLSgz[] = {
/* columns rows colors chars-per-pixel */
"48 48 5 1 ",
"  c None",
". c #25131A",
"X c #C09344",
"o c #FFD569",
"O c #FFF1CC",
/* pixels */
"                                                ",
"                                                ",
"                                                ",
"                                                ",
"                                                ",
"                                                ",
"                                                ",
"                                                ",
"                                                ",
"                  ............                  ",
"                  ............                  ",
"                  ............                  ",
"               ...XXXXXXXXXXXX...               ",
"               ...XXXXXXXXXXXX...               ",
"               ...XXXXXXXXXXXX...               ",
"            ...XXXOOOOOOOOOoooXXX...            ",
"            ...XXXOOOOOOOOOoooXXX...            ",
"            ...XXXOOOOOOOOOoooXXX...            ",
"         ...XXXOOOOOOXXXXXXoooOOOXXX...         ",
"         ...XXXOOOOOOXXXXXXoooOOOXXX...         ",
"         ...XXXOOOOOOXXXXXXoooOOOXXX...         ",
"         ...XXXOOOXXXOOOoooXXXoooXXX...         ",
"         ...XXXOOOXXXOOOoooXXXoooXXX...         ",
"         ...XXXOOOXXXOOOoooXXXoooXXX...         ",
"         ...XXXoooXXXooooooXXXoooXXX...         ",
"         ...XXXoooXXXooooooXXXoooXXX...         ",
"         ...XXXoooXXXooooooXXXoooXXX...         ",
"         ...XXXOOOoooXXXXXXooooooXXX...         ",
"         ...XXXOOOoooXXXXXXooooooXXX...         ",
"         ...XXXOOOoooXXXXXXooooooXXX...         ",
"            ...XXXooooooooooooXXX...            ",
"            ...XXXooooooooooooXXX...            ",
"            ...XXXooooooooooooXXX...            ",
"               ...XXXXXXXXXXXX...               ",
"               ...XXXXXXXXXXXX...               ",
"               ...XXXXXXXXXXXX...               ",
"                  ............                  ",
"                  ............                  ",
"                  ............                  ",
"                                                ",
"                                                ",
"                                                ",
"                                                ",
"                                                ",
"                                                ",
"                                                ",
"                                                ",
"                                                "
};
