/* XPM */
static char *_22c5e5c6e53430da77fb5a1aa11532c7UNBW9hy9msf4tsu[] = {
/* columns rows colors chars-per-pixel */
"48 48 14 1 ",
"  c None",
". c black",
"X c #1E120D",
"o c #0E0E1A",
"O c #3C2819",
"+ c #523B27",
"@ c #A47D61",
"# c #274385",
"$ c #3D65AF",
"% c #797E95",
"& c #BDAD92",
"* c #A5A8B4",
"= c #D9D2C8",
"- c white",
/* pixels */
"                                                ",
"                                                ",
"                                                ",
"                                                ",
"              ........  ....                    ",
"              ........  ....                    ",
"              ..++++OO..++......                ",
"              ..++++OO..++......                ",
"              ....++++OO++++++OO..              ",
"              ....++++OO++++++OO..              ",
"            ..OO++++++++++++++++..              ",
"            ..OO++++++++++++++++..              ",
"          ..OO++++++++OO++++++++OO..            ",
"          ..OO++++++++OO++++++++OO..            ",
"          ..++++++OOOOOOOO++++++++..            ",
"          ..++++++OOOOOOOO++++++++..            ",
"          ..++++++OO@@@@@@@@OO++++..            ",
"          ..++++++OO@@@@@@@@OO++++..            ",
"          ..++++OO@@@@@@@@@@@@OO++..            ",
"          ..++++OO@@@@@@@@@@@@OO++..            ",
"          ..OO++@@XX&&&&&&XX@@OO..              ",
"          ..OO++@@XX&&&&&&XX@@OO..              ",
"            ..++&&XX&&&&&&XX&&&&..              ",
"            ..++&&XX&&&&&&XX&&&&..              ",
"          ....@@&&&&&&&&&&&&&&@@..              ",
"          ....@@&&&&&&&&&&&&&&@@..              ",
"        ..&&&&..@@&&&&&&&&&&@@....              ",
"        ..&&&&..@@&&&&&&&&&&@@....              ",
"        ..&&&&..OO@@@@@@@@@@++OO........        ",
"        ..&&&&..OO@@@@@@@@@@++OO........        ",
"          ......OO++%%%%%%++++++OO======......  ",
"          ......OO++%%%%%%++++++OO======......  ",
"              ..++++%%****++++&&&&OO**======**..",
"              ..++++%%****++++&&&&OO**======**..",
"        --    ..++++$$$$$$++++&&&&OO********==..",
"        --    ..++++$$$$$$++++&&&&OO********==..",
"        --    ..$$$$$$##$$$$##....OO............",
"        --    ..$$$$$$##$$$$##....OO............",
"        --  oo..++++$$..OOOOOO..oo....      --  ",
"        --  oo..++++$$..OOOOOO..oo....      --  ",
"        ------..++++OO....OOOO..oooo      ----  ",
"        ------..++++OO....OOOO..oooo      ----  ",
"        ----------oooooooooooooooooo    ------  ",
"        ----------oooooooooooooooooo    ------  ",
"        --------------oooooooooooo  --------    ",
"        --------------oooooooooooo  --------    ",
"          ----------------------------------    ",
"          ----------------------------------    "
};
