/* XPM */
static char *a5ab19c01e4b4434a8b73b9246186e3fO0izw0NkDDDdYGH4[] = {
/* columns rows colors chars-per-pixel */
"48 48 14 1 ",
"  c None",
". c black",
"X c #1C130D",
"o c #0E0E1A",
"O c #39291B",
"+ c #4E3C2A",
"@ c #162257",
"# c #9D7E65",
"$ c #2E4381",
"% c #7A7E93",
"& c #4765AA",
"* c #BAAD95",
"= c #A6A8B3",
"- c white",
/* pixels */
"                                                ",
"                                                ",
"                                                ",
"                                                ",
"                        ....  ........          ",
"                        ....  ........          ",
"                    ......++..OO++++..          ",
"                    ......++..OO++++..          ",
"        ----      ..++++OO++OO++++....          ",
"        ----      ..++++OO++OO++++....          ",
"    ------      ..++++++++++++++++++OO..        ",
"    ------      ..++++++++++++++++++OO..        ",
"  ------      ..++++++++++++++++++++++OO..      ",
"  ------      ..++++++++++++++++++++++OO..      ",
"------        ..++++++OOOO++++++OO++++OO..      ",
"------        ..++++++OOOO++++++OO++++OO..      ",
"----        ..OO++OO####OO++++++OOOOOOOO..      ",
"----        ..OO++OO####OO++++++OOOOOOOO..      ",
"------      ..OOOO########OO++++OOOO++OO..      ",
"------      ..OOOO########OO++++OOOO++OO..      ",
"------      ..OO**XX****XX##++OO##++++OO..      ",
"------      ..OO**XX****XX##++OO##++++OO..      ",
"----          ..**XX****XX**OO####++OOOO..      ",
"----          ..**XX****XX**OO####++OOOO..      ",
"----          ..##********########OOOO..        ",
"----          ..##********########OOOO..        ",
"--              ..##############..OO..          ",
"--              ..##############..OO..          ",
"----            ....OO%%%%OO++++....        ....",
"----            ....OO%%%%OO++++....        ....",
"----          ..##OO====%%++++****..    ....==..",
"----          ..##OO====%%++++****..    ....==..",
"----          ..##OO====OO++OO******....======..",
"----          ..##OO====OO++OO******....======..",
"----          ....OO====++++..******..========..",
"----          ....OO====++++..******..========..",
"------        ..$$&&&&&&&&++OO......========....",
"------        ..$$&&&&&&&&++OO......========....",
"--  ----  oo..++++$$@@&&&&++....============..  ",
"--  ----  oo..++++$$@@&&&&++....============..  ",
"--------oooo..++++OO........============....    ",
"--------oooo..++++OO........============....    ",
"--------------oooo..============----....        ",
"--------------oooo..============----....        ",
"----------------------------------              ",
"----------------------------------              ",
"------------------------------                  ",
"------------------------------                  "
};
