/* XPM */
static char *_1012ff5e6d047b39450da798ffebe13h7BT6gTCmwDpoa1J[] = {
/* columns rows colors chars-per-pixel */
"48 48 12 1 ",
"  c None",
". c black",
"X c #1C130D",
"o c #0E0E1A",
"O c #39291B",
"+ c #4E3C2A",
"@ c #9D7F65",
"# c #304281",
"$ c #7A7E93",
"% c #4863AA",
"& c #BAAE95",
"* c #A6A8B3",
/* pixels */
"                                                ",
"                                                ",
"                                                ",
"                                                ",
"                ........  ....                  ",
"                ........  ....                  ",
"                ..++++OO..++......              ",
"                ..++++OO..++......              ",
"                ....++++OO++++++OO..            ",
"                ....++++OO++++++OO..            ",
"              ..OO++++++++++++++++..            ",
"              ..OO++++++++++++++++..            ",
"            ..OO++++++++OO++++++++OO..          ",
"            ..OO++++++++OO++++++++OO..          ",
"            ..++++++OOOOOOOO++++++++..          ",
"            ..++++++OOOOOOOO++++++++..          ",
"            ..++++++OO@@@@@@@@OO++++..          ",
"            ..++++++OO@@@@@@@@OO++++..          ",
"            ..++++OO@@@@@@@@@@@@OO++..          ",
"            ..++++OO@@@@@@@@@@@@OO++..          ",
"            ..OO++@@XX&&&&&&XX@@OO..            ",
"            ..OO++@@XX&&&&&&XX@@OO..            ",
"              ..++&&XX&&&&&&XX&&&&..            ",
"              ..++&&XX&&&&&&XX&&&&..            ",
"              ..@@&&&&&&&&&&&&&&@@..            ",
"              ..@@&&&&&&&&&&&&&&@@..            ",
"                ..@@&&&&&&&&&&@@..              ",
"                ..@@&&&&&&&&&&@@..              ",
"                ..OO@@@@@@@@@@OO..              ",
"                ..OO@@@@@@@@@@OO..              ",
"                ..OO++$$$$$$++OO..              ",
"                ..OO++$$$$$$++OO..              ",
"                ..++++$$****++++..              ",
"                ..++++$$****++++..              ",
"              ..&&&&++%%%%%%++&&&&..            ",
"              ..&&&&++%%%%%%++&&&&..            ",
"              ..&&&&%%%%##%%%%&&&&..            ",
"              ..&&&&%%%%##%%%%&&&&..            ",
"              oo..%%%%##..##%%%%..oo            ",
"              oo..%%%%##..##%%%%..oo            ",
"            oooo..OO++..oo..++OO..oooo          ",
"            oooo..OO++..oo..++OO..oooo          ",
"            oooooooooooooooooooooooooo          ",
"            oooooooooooooooooooooooooo          ",
"              oooooooooooooooooooooo            ",
"              oooooooooooooooooooooo            ",
"                                                ",
"                                                "
};
