/* XPM */
static char *MC_Run_Left_31680470158[] = {
/* columns rows colors chars-per-pixel */
"48 48 15 1 ",
"  c None",
". c black",
"X c #0C0E1A",
"o c #1F1D1F",
"O c #21110D",
"+ c #402717",
"@ c #573A23",
"# c #AC7B5D",
"$ c #1D438A",
"% c #2C65B5",
"& c #787E97",
"* c #A4A8B5",
"= c #C1AC8F",
"- c #FFF5FF",
"; c white",
/* pixels */
"                                                ",
"                                                ",
"            ....  ........                      ",
"            ....  ........                      ",
"        ......@@..++@@@@..  ----------------    ",
"        ......@@..++@@@@..  ----------------    ",
"      ..@@@@++@@++@@@@....----------  --------  ",
"      ..@@@@++@@++@@@@....----------  --------  ",
"    ..@@@@@@@@@@@@@@@@@@++..oo----------------  ",
"    ..@@@@@@@@@@@@@@@@@@++..oo----------------  ",
"  ..@@@@@@@@@@@@@@@@@@@@@@++..--                ",
"  ..@@@@@@@@@@@@@@@@@@@@@@++..--                ",
"  ..@@@@@@++++@@@@@@++@@@@++..----              ",
"  ..@@@@@@++++@@@@@@++@@@@++..----              ",
"..++@@++####++@@@@@@++++++++..----              ",
"..++@@++####++@@@@@@++++++++..----              ",
"..++++########++@@@@++++@@++..----              ",
"..++++########++@@@@++++@@++..----              ",
"..++..OO====OO##@@++##@@@@++..--        ;;      ",
"..++..OO====OO##@@++##@@@@++..--        ;;      ",
"  ....OO====OO==++####@@++++..--                ",
"  ....OO====OO==++####@@++++..--                ",
"    ..============####++++..oo--                ",
"    ..============####++++..oo--                ",
"    ..##========##++++++..------                ",
"    ..##========##++++++..------                ",
"      ..########@@@@++..--------;;              ",
"      ..########@@@@++..--------;;              ",
"      ..++&&&&@@@@@@++..----------              ",
"      ..++&&&&@@@@@@++..----------              ",
"      ..++****====@@++..  --------              ",
"      ..++****====@@++..  --------              ",
"      ..$$%%%%====++%%..------------            ",
"      ..$$%%%%====++%%..------------            ",
"      ..$$$$%%%%%%%%++++..--  --  ----      ;;  ",
"      ..$$$$%%%%%%%%++++..--  --  ----      ;;  ",
"      ..$$$$$$......++++..--------  ------      ",
"      ..$$$$$$......++++..--------  ------      ",
"    ..++++$$..XXXXXX......--------------------  ",
"    ..++++$$..XXXXXX......--------------------  ",
"  XX..++++++..XXXXXXXXXXXXXX                    ",
"  XX..++++++..XXXXXXXXXXXXXX                    ",
"  XXXXXXXXXXXXXXXXXXXXXXXXXX                    ",
"  XXXXXXXXXXXXXXXXXXXXXXXXXX                    ",
"    XXXXXXXXXXXXXXXXXXXXXX                      ",
"    XXXXXXXXXXXXXXXXXXXXXX                      ",
"                                                ",
"                                                "
};
