/* XPM */
static char *MC_Run_Down_31680470159[] = {
/* columns rows colors chars-per-pixel */
"48 48 12 1 ",
"  c None",
". c black",
"X c #0C0E1A",
"o c #21110D",
"O c #402717",
"+ c #573A23",
"@ c #AC7B5D",
"# c #1D438A",
"$ c #2C65B5",
"% c #787E97",
"& c #A4A8B5",
"* c #C1AC8F",
/* pixels */
"                                                ",
"                                                ",
"                                                ",
"                                                ",
"                ........  ....                  ",
"                ........  ....                  ",
"                ..++++OO..++......              ",
"                ..++++OO..++......              ",
"                ....++++OO++++++OO..            ",
"                ....++++OO++++++OO..            ",
"              ..OO++++++++++++++++..            ",
"              ..OO++++++++++++++++..            ",
"            ..OO++++++++OO++++++++OO..          ",
"            ..OO++++++++OO++++++++OO..          ",
"            ..++++++OOOOOOOO++++++++..          ",
"            ..++++++OOOOOOOO++++++++..          ",
"            ..++++++OO@@@@@@@@OO++++..          ",
"            ..++++++OO@@@@@@@@OO++++..          ",
"            ..++++OO@@@@@@@@@@@@OO++..          ",
"            ..++++OO@@@@@@@@@@@@OO++..          ",
"            ..OO++@@oo******oo@@OO..            ",
"            ..OO++@@oo******oo@@OO..            ",
"              ..++**oo******oo**@@..            ",
"              ..++**oo******oo**@@..            ",
"              ..@@**************@@..            ",
"              ..@@**************@@..            ",
"              ..OO@@**********@@OO..            ",
"              ..OO@@**********@@OO..            ",
"                ..OO@@@@@@@@@@OO..              ",
"                ..OO@@@@@@@@@@OO..              ",
"                ..OO++%%%%%%++OO..              ",
"                ..OO++%%%%%%++OO..              ",
"                ..++++%%&&&&++++..              ",
"                ..++++%%&&&&++++..              ",
"              ..****++$$$$$$++++@@..            ",
"              ..****++$$$$$$++++@@..            ",
"              ..****##$$##$$$$$$@@..            ",
"              ..****##$$##$$$$$$@@..            ",
"              XX..OOOOOO..++++++..XX            ",
"              XX..OOOOOO..++++++..XX            ",
"            XXXXXX........++++....XXXX          ",
"            XXXXXX........++++....XXXX          ",
"            XXXXXXXXXXXXXXXXXXXXXXXXXX          ",
"            XXXXXXXXXXXXXXXXXXXXXXXXXX          ",
"              XXXXXXXXXXXXXXXXXXXXXX            ",
"              XXXXXXXXXXXXXXXXXXXXXX            ",
"                                                ",
"                                                "
};
