/* XPM */
static char *MC_Run_Up_21680470159[] = {
/* columns rows colors chars-per-pixel */
"48 48 10 1 ",
"  c None",
". c black",
"X c #0C0E1A",
"o c #402717",
"O c #573A23",
"+ c #AC7B5D",
"@ c #1D438A",
"# c #2C65B5",
"$ c #C1AC8F",
"% c #FFF5FF",
/* pixels */
"                    ....  ........              ",
"                    ....  ........              ",
"                ......OO..ooOOOO..              ",
"                ......OO..ooOOOO..              ",
"              ..ooOOOOOOooOOOO....              ",
"              ..ooOOOOOOooOOOO....              ",
"              ..OOOOOOOOOOOOOOOOoo..            ",
"              ..OOOOOOOOOOOOOOOOoo..            ",
"            ..ooOOOOOOOOOOOOOOOOOOoo..          ",
"            ..ooOOOOOOOOOOOOOOOOOOoo..          ",
"            ..ooOOOOOOOOOOOOOOOOOOoo..%%        ",
"            ..ooOOOOOOOOOOOOOOOOOOoo..%%        ",
"        %%%%..ooOOOOOOOOOOOOOOOOOOoo..%%        ",
"        %%%%..ooOOOOOOOOOOOOOOOOOOoo..%%        ",
"        %%%%..ooooOOOOOOOOOOOOOOoooo..%%%%      ",
"        %%%%..ooooOOOOOOOOOOOOOOoooo..%%%%      ",
"      %%%%%%%%..ooooooOOOOOOoooooooo..  %%      ",
"      %%%%%%%%..ooooooOOOOOOoooooooo..  %%      ",
"    %%%%%%%%%%..oooooooooooooooooo..%%%%%%%%    ",
"    %%%%%%%%%%..oooooooooooooooooo..%%%%%%%%    ",
"    %%%%%%%%%%..++oooooooooooooo++..%%%%%%%%%%  ",
"    %%%%%%%%%%..++oooooooooooooo++..%%%%%%%%%%  ",
"  %%%%%%%%%%%%%%..++++oooooo++++..%%%%%%  %%%%%%",
"  %%%%%%%%%%%%%%..++++oooooo++++..%%%%%%  %%%%%%",
"  %%%%%%%%%%%%%%..OO++++++++++OO..%%%%%%%%%%%%%%",
"  %%%%%%%%%%%%%%..OO++++++++++OO..%%%%%%%%%%%%%%",
"%%%%%%%%  %%%%....OOOOOOOOOOOOOO..%%%%  %%%%%%%%",
"%%%%%%%%  %%%%....OOOOOOOOOOOOOO..%%%%  %%%%%%%%",
"%%%%%%      ..$$$$OOOOOOOOOOOOOO..        %%%%%%",
"%%%%%%      ..$$$$OOOOOOOOOOOOOO..        %%%%%%",
"%%%%        ..$$$$ooOOOOOOOOOOoo..%%        %%%%",
"%%%%        ..$$$$ooOOOOOOOOOOoo..%%        %%%%",
"%%          %%....######@@@@####..%%        %%%%",
"%%          %%....######@@@@####..%%        %%%%",
"%%%%        %%%%..####OOOOoooooo..  %%      %%%%",
"%%%%        %%%%..####OOOOoooooo..  %%      %%%%",
"%%%%          XX..@@OOOOOO......XXXX          %%",
"%%%%          XX..@@OOOOOO......XXXX          %%",
"%%          XXXX....OOOOOO..XXXXXXXXXX        %%",
"%%          XXXX....OOOOOO..XXXXXXXXXX        %%",
"            XXXXXXXXXXXXXXXXXXXXXXXXXX          ",
"            XXXXXXXXXXXXXXXXXXXXXXXXXX          ",
"              XXXXXXXXXXXXXXXXXXXXXX            ",
"              XXXXXXXXXXXXXXXXXXXXXX            ",
"                                                ",
"                                                ",
"                                                ",
"                                                "
};
