/* XPM */
static char *result[] = {
/* columns rows colors chars-per-pixel */
"48 48 5 1 ",
"  c #0C0E1A",
". c #1D235D",
"X c #4D8AB3",
"o c #65B1B8",
"O c None",
/* pixels */
"OOOOOOOOOOOOOOOOOOOOOOOOOOOOOOOOOOOOOOOOOOOOOOOO",
"OOOOOOOOOOOOOOOOOOOOOOOOOOOOOOOOOOOOOOOOOOOOOOOO",
"OOOOOOOOOOOOOOOOOOOOOOOOOOOOOOOOOOOOOOOOOOOOOOOO",
"OOOOOOOOOOOOOOOOOOOOOOOOOOOOOOOOOOOOOOOOOOOOOOOO",
"OOOOOOOOOOOOOOOOOOOOOOOOOOOOOOOOOOOOOOOOOOOOOOOO",
"OOOOOOOOOOOOOOOOOOOOOOOOOOOOOOOOOOOOOOOOOOOOOOOO",
"OOOOOOOOOO......OOOOOOOOOOOOOOOOOOOOOOOOOOOOOOOO",
"OOOOOOOOOO......OOOOOOOOOOOOOOOOOOOOOOOOOOOOOOOO",
"OOOOOOOO..XXooXX..OOOOOOOOOOOOOOOOOOOOOOOOOOOOOO",
"OOOOOOOO..XXooXX..OOOOOOOOOOOOOOOOOOOOOOOOOOOOOO",
"OOOOOOOO..ooooooXX..OOOOOOOOOOOOOOOOOOOOOOOOOOOO",
"OOOOOOOO..ooooooXX..OOOOOOOOOOOOOOOOOOOOOOOOOOOO",
"OOOOOOOO..oooooooo..OOOOOOOOOOOOOOOO......OOOOOO",
"OOOOOOOO..oooooooo..OOOOOOOOOOOOOOOO......OOOOOO",
"OOOOOOOOOO..oooo..OOOOOOOOOOOOOOOO..ooXX..OOOOOO",
"OOOOOOOOOO..oooo..OOOOOOOOOOOOOOOO..ooXX..OOOOOO",
"OOOOOOOOOOOO....OOOOOOOOOOOOOOOOOO..XX....OOOOOO",
"OOOOOOOOOOOO....OOOOOOOOOOOOOOOOOO..XX....OOOOOO",
"OOOOOOOOOOOOOOOOOOOOOOOOOOOOOOOOOO......OOOOOOOO",
"OOOOOOOOOOOOOOOOOOOOOOOOOOOOOOOOOO......OOOOOOOO",
"OOOOOOOOOOOOOOOOOOOOOOOOOOOOOOOOOOOOOOOOOOOOOOOO",
"OOOOOOOOOOOOOOOOOOOOOOOOOOOOOOOOOOOOOOOOOOOOOOOO",
"OOOOOOOOOOOOOOOOOOOOOOOOOOOOOOOOOOOOOOOOOOOOOOOO",
"OOOOOOOOOOOOOOOOOOOOOOOOOOOOOOOOOOOOOOOOOOOOOOOO",
"OOOOOOOOOOOOOOOOOOOOOOOOOOOOOOOOOOOOOOOOOOOOOOOO",
"OOOOOOOOOOOOOOOOOOOOOOOOOOOOOOOOOOOOOOOOOOOOOOOO",
"OOOOOOOOOOOOOOOOOOOOOOOOOOOOOOOOOOOOOOOOOOOOOOOO",
"OOOOOOOOOOOOOOOOOOOOOOOOOOOOOOOOOOOOOOOOOOOOOOOO",
"OOOOOOOOOO....OOOOOOOOOOOOOOOOOOOOOOOOOOOOOOOOOO",
"OOOOOOOOOO....OOOOOOOOOOOOOOOOOOOOOOOOOOOOOOOOOO",
"OOOOOOOO..XXoo..OOOOOOOOOOOOOOOOOOOOOOOOOOOOOOOO",
"OOOOOOOO..XXoo..OOOOOOOOOOOOOOOOOOOOOOOOOOOOOOOO",
"OOOOOOOO..ooXX..OOOOOOOOOOOOOOOOOOOOOOOOOOOOOOOO",
"OOOOOOOO..ooXX..OOOOOOOOOOOOOOOOOOOOOOOOOOOOOOOO",
"OOOOOOOO......OOOOOOOOOOOOOOOOOOOOOOOO    OOOOOO",
"OOOOOOOO......OOOOOOOOOOOOOOOOOOOOOOOO    OOOOOO",
"OOOOOOOOOO      OOOOOOOOOOOOOOOOOOOO      OOOOOO",
"OOOOOOOOOO      OOOOOOOOOOOOOOOOOOOO      OOOOOO",
"OOOOOOOOOO        OOOOOOOOOOOOOOOOOO    OOOOOOOO",
"OOOOOOOOOO        OOOOOOOOOOOOOOOOOO    OOOOOOOO",
"OOOOOOOOOOOO      OOOOOOOOOOOOOOOOOOOOOOOOOOOOOO",
"OOOOOOOOOOOO      OOOOOOOOOOOOOOOOOOOOOOOOOOOOOO",
"OOOOOOOOOOOOOOOOOOOOOOOOOOOOOOOOOOOOOOOOOOOOOOOO",
"OOOOOOOOOOOOOOOOOOOOOOOOOOOOOOOOOOOOOOOOOOOOOOOO",
"OOOOOOOOOOOOOOOOOOOOOOOOOOOOOOOOOOOOOOOOOOOOOOOO",
"OOOOOOOOOOOOOOOOOOOOOOOOOOOOOOOOOOOOOOOOOOOOOOOO",
"OOOOOOOOOOOOOOOOOOOOOOOOOOOOOOOOOOOOOOOOOOOOOOOO",
"OOOOOOOOOOOOOOOOOOOOOOOOOOOOOOOOOOOOOOOOOOOOOOOO"
};
