/* XPM */
static char *_f5225c56cb247dcd2b58ad565cff237dzHtRHcv5oX16ewW[] = {
/* columns rows colors chars-per-pixel */
"48 48 10 1 ",
"  c None",
". c black",
"X c #0E0E1A",
"o c #202557",
"O c #843D48",
"+ c #3A4381",
"@ c #4D5B95",
"# c #6988AC",
"$ c #87AEB6",
"% c white",
/* pixels */
"                                                ",
"                                                ",
"                                                ",
"                                                ",
"                                                ",
"                                                ",
"                                                ",
"                                                ",
"                                                ",
"                                                ",
"                                                ",
"                                                ",
"                                                ",
"                                                ",
"                                                ",
"                                                ",
"                                                ",
"                                                ",
"                                                ",
"                                                ",
"                                                ",
"                                                ",
"                 oooooooooooooooo               ",
"                 oooooooooooooooo               ",
"               oo##############@@oo             ",
"               oo##############@@oo             ",
"             oo@@$$$$$$$$$$$$####@@oo           ",
"             oo@@$$$$$$$$$$$$####@@oo           ",
"             oo$$$$$$$$$$$$$$$$####oo           ",
"             oo$$$$$$$$$$$$$$$$####oo           ",
"           oo@@$$..$$$$..%%$$$$####oo           ",
"           oo@@$$..$$$$..%%$$$$####oo           ",
"           oo##$$..$$$$....$$$$$$##@@oo         ",
"           oo##$$..$$$$....$$$$$$##@@oo         ",
"           oo##++$$$$$$$$$$++++$$##@@oo         ",
"           oo##++$$$$$$$$$$++++$$##@@oo         ",
"           oo##$$++++++++++++$$$$##@@oo         ",
"           oo##$$++++++++++++$$$$##@@oo         ",
"         XXoo@@##$$++++OOOO$$$$##@@@@ooXX       ",
"         XXoo@@##$$++++OOOO$$$$##@@@@ooXX       ",
"         XXoo@@@@##############@@@@ooXXXX       ",
"         XXoo@@@@##############@@@@ooXXXX       ",
"         XXXXoo@@@@@@@@@@@@@@@@@@XXXXXXXX       ",
"         XXXXoo@@@@@@@@@@@@@@@@@@XXXXXXXX       ",
"           XXXXXXXXXXXXXXXXXXXXXXXXXXXX         ",
"           XXXXXXXXXXXXXXXXXXXXXXXXXXXX         ",
"                                                ",
"                                                "
};
