/* XPM */
static char *f731b1a6a46e494e8ea0816fbec5f091oDXCmH9uttvTkNmR[] = {
/* columns rows colors chars-per-pixel */
"48 48 10 1 ",
"  c None",
". c black",
"X c #0C0E1A",
"o c #1D235D",
"O c #9E2E46",
"+ c #33418A",
"@ c #425B9E",
"# c #4D8AB3",
"$ c #65B1B8",
"% c white",
/* pixels */
"                                                ",
"                                                ",
"                                                ",
"                                                ",
"                                                ",
"                                                ",
"                                                ",
"                                                ",
"                                                ",
"                                                ",
"                                                ",
"                                                ",
"                                                ",
"                                                ",
"                                                ",
"                                                ",
"                                                ",
"                                                ",
"                                                ",
"                                                ",
"                                                ",
"                                                ",
"                                                ",
"                                                ",
"                oooooooooooooooo                ",
"                oooooooooooooooo                ",
"              oo@@$$$$$$$$$$##@@oo              ",
"              oo@@$$$$$$$$$$##@@oo              ",
"            oo@@$$$$$$$$$$$$$$##@@oo            ",
"            oo@@$$$$$$$$$$$$$$##@@oo            ",
"          oo@@$$$$$$$$$$$$$$$$####@@oo          ",
"          oo@@$$$$$$$$$$$$$$$$####@@oo          ",
"        oo@@##$$..$$$$..%%$$$$$$##@@@@oo        ",
"        oo@@##$$..$$$$..%%$$$$$$##@@@@oo        ",
"        oo@@##$$..$$$$....$$$$$$##@@@@oo        ",
"        oo@@##$$..$$$$....$$$$$$##@@@@oo        ",
"        oo@@##++$$$$$$$$$$++++$$##@@@@oo        ",
"        oo@@##++$$$$$$$$$$++++$$##@@@@oo        ",
"        oo@@@@##++++++++++++$$##@@@@@@oo        ",
"        oo@@@@##++++++++++++$$##@@@@@@oo        ",
"        oo@@@@@@##++++OOOO####@@@@@@ooXX        ",
"        oo@@@@@@##++++OOOO####@@@@@@ooXX        ",
"        XXoo@@@@@@@@@@@@@@@@@@@@XXXXXXXX        ",
"        XXoo@@@@@@@@@@@@@@@@@@@@XXXXXXXX        ",
"          XXXXXXXXXXXXXXXXXXXXXXXXXXXX          ",
"          XXXXXXXXXXXXXXXXXXXXXXXXXXXX          ",
"                                                ",
"                                                "
};
