/* XPM */
static char *result[] = {
/* columns rows colors chars-per-pixel */
"48 48 7 1 ",
"  c black",
". c #0C0E1A",
"X c #1D235D",
"o c #425B9E",
"O c #4D8AB3",
"+ c #65B1B8",
"@ c None",
/* pixels */
"@@@@@@@@@@@@@@@@@@@@@@@@@@@@@@@@@@@@@@@@@@@@@@@@",
"@@@@@@@@@@@@@@@@@@@@@@@@@@@@@@@@@@@@@@@@@@@@@@@@",
"@@@@@@@@@@@@@@@@@@@@@@@@@@@@@@@@@@@@@@@@@@@@@@@@",
"@@@@@@@@@@@@@@@@@@@@@@@@@@@@@@@@@@@@@@@@@@@@@@@@",
"@@@@@@@@@@@@@@@@@@@@@@@@@@@@@@@@@@@@@@@@@@@@@@@@",
"@@@@@@@@@@@@@@@@@@@@@@@@@@@@@@@@@@@@@@@@@@@@@@@@",
"@@@@@@@@@@@@@@@@@@@@@@@@@@@@@@@@@@@@@@@@@@@@@@@@",
"@@@@@@@@@@@@@@@@@@@@@@@@@@@@@@@@@@@@@@@@@@@@@@@@",
"@@@@@@@@@@@@@@@@XXXXXXXXXX@@@@@@@@@@@@@@@@@@@@@@",
"@@@@@@@@@@@@@@@@XXXXXXXXXX@@@@@@@@@@@@@@@@@@@@@@",
"@@@@@@@@@@@@@@XXooOOOOOOOOXXXX@@@@@@@@@@@@@@@@@@",
"@@@@@@@@@@@@@@XXooOOOOOOOOXXXX@@@@@@@@@@@@@@@@@@",
"@@@@@@@@@@@@XXooOOOO++++++XXOOXX@@@@@@@@@@@@@@@@",
"@@@@@@@@@@@@XXooOOOO++++++XXOOXX@@@@@@@@@@@@@@@@",
"@@@@@@@@@@@@XXOOOO++++++++XX++ooXX@@@@@@@@@@@@@@",
"@@@@@@@@@@@@XXOOOO++++++++XX++ooXX@@@@@@@@@@@@@@",
"@@@@@@@@@@@@XXOOOO++    ++XX++XXXX@@@@@@@@@@@@@@",
"@@@@@@@@@@@@XXOOOO++    ++XX++XXXX@@@@@@@@@@@@@@",
"@@@@@@@@@@XXooOO++++    ++XXXX  ooXX@@@@@@@@@@@@",
"@@@@@@@@@@XXooOO++++    ++XXXX  ooXX@@@@@@@@@@@@",
"@@@@@@@@@@XXooOOOO++++++++XX++  OOXX@@@@@@@@@@@@",
"@@@@@@@@@@XXooOOOO++++++++XX++  OOXX@@@@@@@@@@@@",
"@@@@@@@@@@@@XXooOOOO++++XX++++++OOXX@@@@@@@@@@@@",
"@@@@@@@@@@@@XXooOOOO++++XX++++++OOXX@@@@@@@@@@@@",
"@@@@@@@@@@@@@@XXXXXXXXXX++++++++OOXX@@@@@@@@@@@@",
"@@@@@@@@@@@@@@XXXXXXXXXX++++++++OOXX@@@@@@@@@@@@",
"@@@@@@@@@@@@XXooooooOO++++++++++OOXX@@@@@@@@@@@@",
"@@@@@@@@@@@@XXooooooOO++++++++++OOXX@@@@@@@@@@@@",
"@@@@@@@@@@@@XXooooOO++++++++++++OOXX@@@@@@@@@@@@",
"@@@@@@@@@@@@XXooooOO++++++++++++OOXX@@@@@@@@@@@@",
"@@@@@@@@@@@@XXooooOO++++++++++OOooXX@@@@@@@@@@@@",
"@@@@@@@@@@@@XXooooOO++++++++++OOooXX@@@@@@@@@@@@",
"@@@@@@@@@@@@@@XXooooOOOOOOOOOOooooXX@@@@@@@@@@@@",
"@@@@@@@@@@@@@@XXooooOOOOOOOOOOooooXX@@@@@@@@@@@@",
"@@@@@@@@@@@@@@@@XXooooooooooooooXX@@@@@@@@@@@@@@",
"@@@@@@@@@@@@@@@@XXooooooooooooooXX@@@@@@@@@@@@@@",
"@@@@@@@@@@@@@@@@@@XXXXXXXXXXXXXX@@@@@@@@@@@@@@@@",
"@@@@@@@@@@@@@@@@@@XXXXXXXXXXXXXX@@@@@@@@@@@@@@@@",
"@@@@@@@@@@@@@@@@..................@@@@@@@@@@@@@@",
"@@@@@@@@@@@@@@@@..................@@@@@@@@@@@@@@",
"@@@@@@@@@@@@@@......................@@@@@@@@@@@@",
"@@@@@@@@@@@@@@......................@@@@@@@@@@@@",
"@@@@@@@@@@@@@@......................@@@@@@@@@@@@",
"@@@@@@@@@@@@@@......................@@@@@@@@@@@@",
"@@@@@@@@@@@@@@@@..................@@@@@@@@@@@@@@",
"@@@@@@@@@@@@@@@@..................@@@@@@@@@@@@@@",
"@@@@@@@@@@@@@@@@@@@@@@@@@@@@@@@@@@@@@@@@@@@@@@@@",
"@@@@@@@@@@@@@@@@@@@@@@@@@@@@@@@@@@@@@@@@@@@@@@@@"
};
