/* XPM */
static char *result[] = {
/* columns rows colors chars-per-pixel */
"48 48 7 1 ",
"  c black",
". c #0C0E1A",
"X c #1D235D",
"o c #425B9E",
"O c #4D8AB3",
"+ c #65B1B8",
"@ c None",
/* pixels */
"@@@@@@@@@@@@@@@@@@@@@@@@@@@@@@@@@@@@@@@@@@@@@@@@",
"@@@@@@@@@@@@@@@@@@@@@@@@@@@@@@@@@@@@@@@@@@@@@@@@",
"@@@@@@@@@@@@@@@@@@@@@@@@@@@@@@@@@@@@@@@@@@@@@@@@",
"@@@@@@@@@@@@@@@@@@@@@@@@@@@@@@@@@@@@@@@@@@@@@@@@",
"@@@@@@@@@@@@@@XXXXXXXXXX@@@@@@@@@@@@@@@@@@@@@@@@",
"@@@@@@@@@@@@@@XXXXXXXXXX@@@@@@@@@@@@@@@@@@@@@@@@",
"@@@@@@@@@@@@XXOOOO++OOOOXX@@@@@@@@@@@@@@@@@@@@@@",
"@@@@@@@@@@@@XXOOOO++OOOOXX@@@@@@@@@@@@@@@@@@@@@@",
"@@@@@@@@@@XXOOOO++++++OOXX@@@@@@@@@@@@@@@@@@@@@@",
"@@@@@@@@@@XXOOOO++++++OOXX@@@@@@@@@@@@@@@@@@@@@@",
"@@@@@@@@@@XXOOOO++  ++++XX@@@@@@@@@@@@@@@@@@@@@@",
"@@@@@@@@@@XXOOOO++  ++++XX@@@@@@@@@@@@@@@@@@@@@@",
"@@@@@@@@@@XXOOOO++++++++XX@@@@@@XXXX@@@@@@@@@@@@",
"@@@@@@@@@@XXOOOO++++++++XX@@@@@@XXXX@@@@@@@@@@@@",
"@@@@@@@@@@@@XXOOOOOOOOXX@@@@@@XX++ooXX@@@@@@@@@@",
"@@@@@@@@@@@@XXOOOOOOOOXX@@@@@@XX++ooXX@@@@@@@@@@",
"@@@@@@@@@@@@@@XXXXXXXX@@@@@@XX++  OOXX@@@@@@@@@@",
"@@@@@@@@@@@@@@XXXXXXXX@@@@@@XX++  OOXX@@@@@@@@@@",
"@@@@@@@@@@@@@@@@@@@@@@@@@@@@XX++OOOOXX@@@@@@@@@@",
"@@@@@@@@@@@@@@@@@@@@@@@@@@@@XX++OOOOXX@@@@@@@@@@",
"@@@@@@@@@@@@@@@@@@@@@@@@@@@@@@XXXXXX@@@@@@@@@@@@",
"@@@@@@@@@@@@@@@@@@@@@@@@@@@@@@XXXXXX@@@@@@@@@@@@",
"@@@@@@@@@@@@@@@@@@@@@@@@@@@@@@@@@@@@@@@@@@@@@@@@",
"@@@@@@@@@@@@@@@@@@@@@@@@@@@@@@@@@@@@@@@@@@@@@@@@",
"@@@@@@@@@@@@@@@@@@@@@@@@@@@@@@@@@@@@@@@@@@@@@@@@",
"@@@@@@@@@@@@@@@@@@@@@@@@@@@@@@@@@@@@@@@@@@@@@@@@",
"@@@@@@@@@@@@@@@@XXXXXX@@@@@@@@@@@@@@@@@@@@@@@@@@",
"@@@@@@@@@@@@@@@@XXXXXX@@@@@@@@@@@@@@@@@@@@@@@@@@",
"@@@@@@@@@@@@@@XXOOOO++XX@@@@@@@@@@@@@@@@@@@@@@@@",
"@@@@@@@@@@@@@@XXOOOO++XX@@@@@@@@@@@@@@@@@@@@@@@@",
"@@@@@@@@@@@@@@XXOO++OOXX@@@@@@@@@@@@@@@@@@@@@@@@",
"@@@@@@@@@@@@@@XXOO++OOXX@@@@@@@@@@@@@@@@@@@@@@@@",
"@@@@@@@@@@@@@@XXooOOOOXX@@@@@@@@@@@@@@@@@@@@@@@@",
"@@@@@@@@@@@@@@XXooOOOOXX@@@@@@@@@@@@@@@@@@@@@@@@",
"@@@@@@@@@@@@@@@@XXXXXX@@@@@@@@@@@@@@@@@@@@@@@@@@",
"@@@@@@@@@@@@@@@@XXXXXX@@@@@@@@@@@@@@@@@@@@@@@@@@",
"@@@@@@@@@@@@@@@@@@@@@@@@@@@@@@@@....@@@@@@@@@@@@",
"@@@@@@@@@@@@@@@@@@@@@@@@@@@@@@@@....@@@@@@@@@@@@",
"@@@@@@@@@@@@@@@@......@@@@@@@@......@@@@@@@@@@@@",
"@@@@@@@@@@@@@@@@......@@@@@@@@......@@@@@@@@@@@@",
"@@@@@@@@@@@@@@@@........@@@@@@....@@@@@@@@@@@@@@",
"@@@@@@@@@@@@@@@@........@@@@@@....@@@@@@@@@@@@@@",
"@@@@@@@@@@@@@@@@@@......@@@@@@@@@@@@@@@@@@@@@@@@",
"@@@@@@@@@@@@@@@@@@......@@@@@@@@@@@@@@@@@@@@@@@@",
"@@@@@@@@@@@@@@@@@@@@@@@@@@@@@@@@@@@@@@@@@@@@@@@@",
"@@@@@@@@@@@@@@@@@@@@@@@@@@@@@@@@@@@@@@@@@@@@@@@@",
"@@@@@@@@@@@@@@@@@@@@@@@@@@@@@@@@@@@@@@@@@@@@@@@@",
"@@@@@@@@@@@@@@@@@@@@@@@@@@@@@@@@@@@@@@@@@@@@@@@@"
};
