/* XPM */
static char *result[] = {
/* columns rows colors chars-per-pixel */
"48 48 7 1 ",
"  c black",
". c #0C0E1A",
"X c #1D235D",
"o c #425B9E",
"O c #4D8AB3",
"+ c #65B1B8",
"@ c None",
/* pixels */
"@@@@@@@@@@@@@@@@@@@@@@@@@@@@@@@@@@@@@@@@@@@@@@@@",
"@@@@@@@@@@@@@@@@@@@@@@@@@@@@@@@@@@@@@@@@@@@@@@@@",
"@@@@@@@@@@@@@@@@@@@@@@@@@@@@@@@@@@@@@@@@@@@@@@@@",
"@@@@@@@@@@@@@@@@@@@@@@@@@@@@@@@@@@@@@@@@@@@@@@@@",
"@@@@@@@@@@@@@@@@@@@@@@@@@@@@@@@@@@@@@@@@@@@@@@@@",
"@@@@@@@@@@@@@@@@@@@@@@@@@@@@@@@@@@@@@@@@@@@@@@@@",
"@@@@@@@@@@@@@@@@@@@@@@@@@@@@@@@@@@@@@@@@@@@@@@@@",
"@@@@@@@@@@@@@@@@@@@@@@@@@@@@@@@@@@@@@@@@@@@@@@@@",
"@@@@@@@@@@@@@@@@@@@@@@@@@@@@@@@@@@@@@@@@@@@@@@@@",
"@@@@@@@@@@@@@@@@@@@@@@@@@@@@@@@@@@@@@@@@@@@@@@@@",
"@@@@@@@@@@@@@@@@@@@@@@@@@@@@@@@@@@@@@@@@@@@@@@@@",
"@@@@@@@@@@@@@@@@@@@@@@@@@@@@@@@@@@@@@@@@@@@@@@@@",
"@@@@@@@@@@@@@@@@@@@@@@@@@@@@@@@@@@@@@@@@@@@@@@@@",
"@@@@@@@@@@@@@@@@@@@@@@@@@@@@@@@@@@@@@@@@@@@@@@@@",
"@@@@@@@@@@@@@@@@@@@@@@@@@@@@@@@@@@@@@@@@@@@@@@@@",
"@@@@@@@@@@@@@@@@@@@@@@@@@@@@@@@@@@@@@@@@@@@@@@@@",
"@@@@@@@@@@@@@@@@@@@@@@@@@@@@@@@@@@@@@@@@@@@@@@@@",
"@@@@@@@@@@@@@@@@@@@@@@@@@@@@@@@@@@@@@@@@@@@@@@@@",
"@@@@@@@@@@@@@@XXXXXXXXXXXXXX@@@@@@@@@@@@@@@@@@@@",
"@@@@@@@@@@@@@@XXXXXXXXXXXXXX@@@@@@@@@@@@@@@@@@@@",
"@@@@@@@@@@@@XXooOOOOOOOOOOOOXX@@@@@@@@@@@@@@@@@@",
"@@@@@@@@@@@@XXooOOOOOOOOOOOOXX@@@@@@@@@@@@@@@@@@",
"@@@@@@@@@@XXooOOOOOO++++++++OOXX@@@@@@@@@@@@@@@@",
"@@@@@@@@@@XXooOOOOOO++++++++OOXX@@@@@@@@@@@@@@@@",
"@@@@@@@@@@XXOOOOOO++++++++++++ooXX@@@@@@@@@@@@@@",
"@@@@@@@@@@XXOOOOOO++++++++++++ooXX@@@@@@@@@@@@@@",
"@@@@@@@@@@XXOOOOOO++++    ++++  XX@@@@@@@@@@@@@@",
"@@@@@@@@@@XXOOOOOO++++    ++++  XX@@@@@@@@@@@@@@",
"@@@@@@@@@@XXOOOO++++++    ++++  OOXX@@@@@@@@@@@@",
"@@@@@@@@@@XXOOOO++++++    ++++  OOXX@@@@@@@@@@@@",
"@@@@@@@@@@XXOOOO++++++++++++++++OOXX@@@@@@@@@@@@",
"@@@@@@@@@@XXOOOO++++++++++++++++OOXX@@@@@@@@@@@@",
"@@@@@@@@@@XXooOOOO++++++++++++++OOooXX@@@@@@@@@@",
"@@@@@@@@@@XXooOOOO++++++++++++++OOooXX@@@@@@@@@@",
"@@@@@@@@@@@@XXooooOO++++++++++++OOooXX@@@@@@@@@@",
"@@@@@@@@@@@@XXooooOO++++++++++++OOooXX@@@@@@@@@@",
"@@@@@@@@@@@@..XXooooOOOOOOOOOOOOooooXX@@@@@@@@@@",
"@@@@@@@@@@@@..XXooooOOOOOOOOOOOOooooXX@@@@@@@@@@",
"@@@@@@@@@@......XXXXooooooooooooooXX..@@@@@@@@@@",
"@@@@@@@@@@......XXXXooooooooooooooXX..@@@@@@@@@@",
"@@@@@@@@@@..........XXXXXXXXXXXXXX....@@@@@@@@@@",
"@@@@@@@@@@..........XXXXXXXXXXXXXX....@@@@@@@@@@",
"@@@@@@@@@@............................@@@@@@@@@@",
"@@@@@@@@@@............................@@@@@@@@@@",
"@@@@@@@@@@@@........................@@@@@@@@@@@@",
"@@@@@@@@@@@@........................@@@@@@@@@@@@",
"@@@@@@@@@@@@@@@@@@@@@@@@@@@@@@@@@@@@@@@@@@@@@@@@",
"@@@@@@@@@@@@@@@@@@@@@@@@@@@@@@@@@@@@@@@@@@@@@@@@"
};
