/* XPM */
static char *result[] = {
/* columns rows colors chars-per-pixel */
"48 48 10 1 ",
"  c black",
". c #0C0E1A",
"X c #1D235D",
"o c #9E2E46",
"O c #33418A",
"+ c #425B9E",
"@ c #4D8AB3",
"# c #65B1B8",
"$ c white",
"% c None",
/* pixels */
"%%%%%%%%%%%%%%%%%%%%%%%%%%%%%%%%%%%%%%%%%%%%%%%%",
"%%%%%%%%%%%%%%%%%%%%%%%%%%%%%%%%%%%%%%%%%%%%%%%%",
"%%%%%%%%%%%%%%%%%%%%%%%%%%%%%%%%%%%%%%%%%%%%%%%%",
"%%%%%%%%%%%%%%%%%%%%%%%%%%%%%%%%%%%%%%%%%%%%%%%%",
"%%%%%%%%%%%%%%%%%%%%%%%%%%%%%%%%%%%%%%%%%%%%%%%%",
"%%%%%%%%%%%%%%%%%%%%%%%%%%%%%%%%%%%%%%%%%%%%%%%%",
"%%%%%%%%%%%%%%%%%%%%%%%%%%%%%%%%%%%%%%%%%%%%%%%%",
"%%%%%%%%%%%%%%%%%%%%%%%%%%%%%%%%%%%%%%%%%%%%%%%%",
"%%%%%%%%%%%%%%%%%%%%%%%%%%%%%%%%%%%%%%%%%%%%%%%%",
"%%%%%%%%%%%%%%%%%%%%%%%%%%%%%%%%%%%%%%%%%%%%%%%%",
"%%%%%%%%%%%%%%%%%%%%%%%%%%%%%%%%%%%%%%%%%%%%%%%%",
"%%%%%%%%%%%%%%%%%%%%%%%%%%%%%%%%%%%%%%%%%%%%%%%%",
"%%%%%%%%%%%%%%%%%%%%%%%%%%%%%%%%%%%%%%%%%%%%%%%%",
"%%%%%%%%%%%%%%%%%%%%%%%%%%%%%%%%%%%%%%%%%%%%%%%%",
"%%%%%%%%%%%%%%%%%%%%%%%%%%%%%%%%%%%%%%%%%%%%%%%%",
"%%%%%%%%%%%%%%%%%%%%%%%%%%%%%%%%%%%%%%%%%%%%%%%%",
"%%%%%%%%%%%%%%%%%%%%%%%%%%%%%%%%%%%%%%%%%%%%%%%%",
"%%%%%%%%%%%%%%%%%%%%%%%%%%%%%%%%%%%%%%%%%%%%%%%%",
"%%%%%%%%%%%%%%%%%%%%%%%%%%%%%%%%%%%%%%%%%%%%%%%%",
"%%%%%%%%%%%%%%%%%%%%%%%%%%%%%%%%%%%%%%%%%%%%%%%%",
"%%%%%%%%%%%%%%%%%%%%%%%%%%%%%%%%%%%%%%%%%%%%%%%%",
"%%%%%%%%%%%%%%%%%%%%%%%%%%%%%%%%%%%%%%%%%%%%%%%%",
"%%%%%%%%%%%%%%%%%%%%%%%%%%%%%%%%%%%%%%%%%%%%%%%%",
"%%%%%%%%%%%%%%%%%%%%%%%%%%%%%%%%%%%%%%%%%%%%%%%%",
"%%%%%%%%%%%%%%%%XXXXXXXXXXXXXXXX%%%%%%%%%%%%%%%%",
"%%%%%%%%%%%%%%%%XXXXXXXXXXXXXXXX%%%%%%%%%%%%%%%%",
"%%%%%%%%%%%%%%XX++@@##########++XX%%%%%%%%%%%%%%",
"%%%%%%%%%%%%%%XX++@@##########++XX%%%%%%%%%%%%%%",
"%%%%%%%%%%%%XX++@@##############++XX%%%%%%%%%%%%",
"%%%%%%%%%%%%XX++@@##############++XX%%%%%%%%%%%%",
"%%%%%%%%%%%%XX@@@@################++XX%%%%%%%%%%",
"%%%%%%%%%%%%XX@@@@################++XX%%%%%%%%%%",
"%%%%%%%%%%XX++@@######$$  ####  ##@@XX%%%%%%%%%%",
"%%%%%%%%%%XX++@@######$$  ####  ##@@XX%%%%%%%%%%",
"%%%%%%%%%%XX++@@##OOOO    ####  OO@@XX%%%%%%%%%%",
"%%%%%%%%%%XX++@@##OOOO    ####  OO@@XX%%%%%%%%%%",
"%%%%%%%%%%XX++@@####OOOOOOOOOOOO##@@XX%%%%%%%%%%",
"%%%%%%%%%%XX++@@####OOOOOOOOOOOO##@@XX%%%%%%%%%%",
"%%%%%%%%..XX++++@@####ooooOOOO##@@++XX..%%%%%%%%",
"%%%%%%%%..XX++++@@####ooooOOOO##@@++XX..%%%%%%%%",
"%%%%%%%%....XX++++@@@@@@@@@@@@@@++++XX..%%%%%%%%",
"%%%%%%%%....XX++++@@@@@@@@@@@@@@++++XX..%%%%%%%%",
"%%%%%%%%........++++++++++++++++++XX....%%%%%%%%",
"%%%%%%%%........++++++++++++++++++XX....%%%%%%%%",
"%%%%%%%%%%............................%%%%%%%%%%",
"%%%%%%%%%%............................%%%%%%%%%%",
"%%%%%%%%%%%%%%%%%%%%%%%%%%%%%%%%%%%%%%%%%%%%%%%%",
"%%%%%%%%%%%%%%%%%%%%%%%%%%%%%%%%%%%%%%%%%%%%%%%%"
};
